<svg width="18" height="18" viewBox="0 0 18 18" fill="none" xmlns="http://www.w3.org/2000/svg">
<path d="M5.1749 3.60002C5.1749 4.01774 5.00897 4.41835 4.7136 4.71372C4.41823 5.00909 4.01762 5.17502 3.5999 5.17502C3.18219 5.17502 2.78158 5.00909 2.48621 4.71372C2.19084 4.41835 2.0249 4.01774 2.0249 3.60002C2.0249 3.18231 2.19084 2.7817 2.48621 2.48633C2.78158 2.19096 3.18219 2.02502 3.5999 2.02502C4.01762 2.02502 4.41823 2.19096 4.7136 2.48633C5.00897 2.7817 5.1749 3.18231 5.1749 3.60002ZM5.1749 9.00002C5.1749 9.41774 5.00897 9.81835 4.7136 10.1137C4.41823 10.4091 4.01762 10.575 3.5999 10.575C3.18219 10.575 2.78158 10.4091 2.48621 10.1137C2.19084 9.81835 2.0249 9.41774 2.0249 9.00002C2.0249 8.58231 2.19084 8.1817 2.48621 7.88633C2.78158 7.59096 3.18219 7.42502 3.5999 7.42502C4.01762 7.42502 4.41823 7.59096 4.7136 7.88633C5.00897 8.1817 5.1749 8.58231 5.1749 9.00002ZM3.5999 15.975C4.01762 15.975 4.41823 15.8091 4.7136 15.5137C5.00897 15.2183 5.1749 14.8177 5.1749 14.4C5.1749 13.9823 5.00897 13.5817 4.7136 13.2863C4.41823 12.991 4.01762 12.825 3.5999 12.825C3.18219 12.825 2.78158 12.991 2.48621 13.2863C2.19084 13.5817 2.0249 13.9823 2.0249 14.4C2.0249 14.8177 2.19084 15.2183 2.48621 15.5137C2.78158 15.8091 3.18219 15.975 3.5999 15.975ZM10.5749 3.60002C10.5749 3.80686 10.5342 4.01166 10.455 4.20275C10.3759 4.39384 10.2598 4.56747 10.1136 4.71372C9.96734 4.85997 9.79372 4.97598 9.60263 5.05513C9.41154 5.13429 9.20673 5.17502 8.9999 5.17502C8.79307 5.17502 8.58826 5.13429 8.39718 5.05513C8.20609 4.97598 8.03246 4.85997 7.88621 4.71372C7.73996 4.56747 7.62394 4.39384 7.54479 4.20275C7.46564 4.01166 7.4249 3.80686 7.4249 3.60002C7.4249 3.18231 7.59084 2.7817 7.88621 2.48633C8.18158 2.19096 8.58219 2.02502 8.9999 2.02502C9.41762 2.02502 9.81823 2.19096 10.1136 2.48633C10.409 2.7817 10.5749 3.18231 10.5749 3.60002ZM8.9999 10.575C9.20673 10.575 9.41154 10.5343 9.60263 10.4551C9.79372 10.376 9.96734 10.26 10.1136 10.1137C10.2598 9.96747 10.3759 9.79384 10.455 9.60275C10.5342 9.41166 10.5749 9.20686 10.5749 9.00002C10.5749 8.79319 10.5342 8.58839 10.455 8.3973C10.3759 8.20621 10.2598 8.03258 10.1136 7.88633C9.96734 7.74008 9.79372 7.62407 9.60263 7.54491C9.41154 7.46576 9.20673 7.42502 8.9999 7.42502C8.58219 7.42502 8.18158 7.59096 7.88621 7.88633C7.59084 8.1817 7.4249 8.58231 7.4249 9.00002C7.4249 9.41774 7.59084 9.81835 7.88621 10.1137C8.18158 10.4091 8.58219 10.575 8.9999 10.575ZM10.5749 14.4C10.5749 14.6069 10.5342 14.8117 10.455 15.0028C10.3759 15.1938 10.2598 15.3675 10.1136 15.5137C9.96734 15.66 9.79372 15.776 9.60263 15.8551C9.41154 15.9343 9.20673 15.975 8.9999 15.975C8.79307 15.975 8.58826 15.9343 8.39718 15.8551C8.20609 15.776 8.03246 15.66 7.88621 15.5137C7.73996 15.3675 7.62394 15.1938 7.54479 15.0028C7.46564 14.8117 7.4249 14.6069 7.4249 14.4C7.4249 13.9823 7.59084 13.5817 7.88621 13.2863C8.18158 12.991 8.58219 12.825 8.9999 12.825C9.41762 12.825 9.81823 12.991 10.1136 13.2863C10.409 13.5817 10.5749 13.9823 10.5749 14.4ZM14.3999 5.17502C14.8176 5.17502 15.2182 5.00909 15.5136 4.71372C15.809 4.41835 15.9749 4.01774 15.9749 3.60002C15.9749 3.18231 15.809 2.7817 15.5136 2.48633C15.2182 2.19096 14.8176 2.02502 14.3999 2.02502C13.9822 2.02502 13.5816 2.19096 13.2862 2.48633C12.9908 2.7817 12.8249 3.18231 12.8249 3.60002C12.8249 4.01774 12.9908 4.41835 13.2862 4.71372C13.5816 5.00909 13.9822 5.17502 14.3999 5.17502ZM15.9749 9.00002C15.9749 9.41774 15.809 9.81835 15.5136 10.1137C15.2182 10.4091 14.8176 10.575 14.3999 10.575C13.9822 10.575 13.5816 10.4091 13.2862 10.1137C12.9908 9.81835 12.8249 9.41774 12.8249 9.00002C12.8249 8.58231 12.9908 8.1817 13.2862 7.88633C13.5816 7.59096 13.9822 7.42502 14.3999 7.42502C14.8176 7.42502 15.2182 7.59096 15.5136 7.88633C15.809 8.1817 15.9749 8.58231 15.9749 9.00002ZM14.3999 15.975C14.8176 15.975 15.2182 15.8091 15.5136 15.5137C15.809 15.2183 15.9749 14.8177 15.9749 14.4C15.9749 13.9823 15.809 13.5817 15.5136 13.2863C15.2182 12.991 14.8176 12.825 14.3999 12.825C13.9822 12.825 13.5816 12.991 13.2862 13.2863C12.9908 13.5817 12.8249 13.9823 12.8249 14.4C12.8249 14.8177 12.9908 15.2183 13.2862 15.5137C13.5816 15.8091 13.9822 15.975 14.3999 15.975Z" fill="currentColor"/>
</svg>
