<svg width="32" height="36" viewBox="0 0 32 36" fill="none" xmlns="http://www.w3.org/2000/svg">
<path d="M30.4356 22.5044C33.894 25.9369 27.9772 36.7761 16.5629 35.9559C4.79736 34.3155 1.63647 26.5277 1.63647 22.5044C1.63647 13.7824 15.9606 7.87685 22.0066 17.0632C26.7571 24.2811 27.626 19.7157 30.4356 22.5044Z" fill="#61E4C5"/>
<path d="M21.9043 21.1504C20.4326 22.4449 18.8593 18.9122 15.74 17.8542C12.6206 16.7963 11.2108 16.8112 11.5517 15.9382C11.8927 15.0653 13.9379 14.2643 17.0572 15.3223C20.1765 16.3802 22.7453 20.4106 21.9043 21.1504Z" fill="white"/>
<rect x="11.1272" y="5.89087" width="1.47273" height="7.52727" fill="#61E4C5"/>
<path d="M12.1091 6.88717C10.1455 8.63837 9.0073 8.78331 5.73458 8.20354C2.46186 7.62377 0.974507 2.82879 0 2.10408C1.95633 0.0748875 4.33415 -0.321379 6.88004 0.21983C10.9709 1.08948 12.1091 4.43505 12.1091 6.88717Z" fill="#61E4C5"/>
<path d="M11.7818 6.88717C13.7454 8.63837 14.8836 8.78331 18.1563 8.20354C21.429 7.62377 22.9164 2.82879 23.8909 2.10408C21.9345 0.0748875 19.5567 -0.321379 17.0108 0.21983C12.9199 1.08948 11.7818 4.43505 11.7818 6.88717Z" fill="#61E4C5"/>
</svg>
