<svg width="306" height="55" viewBox="0 0 306 55" fill="none" xmlns="http://www.w3.org/2000/svg">
<path d="M74.72 11.2711C77.76 11.2711 80.4 11.7831 82.64 12.8071C84.88 13.7991 86.608 15.2391 87.824 17.1271C89.04 18.9831 89.648 21.1751 89.648 23.7031C89.648 26.2311 89.04 28.4231 87.824 30.2791C86.608 32.1351 84.88 33.5751 82.64 34.5991C80.4 35.5911 77.76 36.0871 74.72 36.0871H68.864V44.8711H59.36V11.2711H74.72ZM74.144 28.5991C76.096 28.5991 77.568 28.1831 78.56 27.3511C79.552 26.4871 80.048 25.2711 80.048 23.7031C80.048 22.1351 79.552 20.9191 78.56 20.0551C77.568 19.1911 76.096 18.7591 74.144 18.7591H68.864V28.5991H74.144ZM120.395 31.9111C120.395 31.9751 120.347 32.7271 120.251 34.1671H101.339C101.723 35.5111 102.459 36.5511 103.547 37.2871C104.667 37.9911 106.059 38.3431 107.723 38.3431C108.971 38.3431 110.043 38.1671 110.939 37.8151C111.867 37.4631 112.795 36.8871 113.723 36.0871L118.523 41.0791C115.995 43.8951 112.299 45.3031 107.435 45.3031C104.395 45.3031 101.723 44.7271 99.419 43.5751C97.115 42.4231 95.323 40.8231 94.043 38.7751C92.795 36.7271 92.171 34.4071 92.171 31.8151C92.171 29.2551 92.779 26.9671 93.995 24.9511C95.243 22.9031 96.955 21.3031 99.131 20.1511C101.307 18.9991 103.755 18.4231 106.475 18.4231C109.067 18.4231 111.419 18.9671 113.531 20.0551C115.643 21.1111 117.307 22.6631 118.523 24.7111C119.771 26.7271 120.395 29.1271 120.395 31.9111ZM106.523 24.9031C105.115 24.9031 103.931 25.3031 102.971 26.1031C102.043 26.9031 101.451 27.9911 101.195 29.3671H111.851C111.595 27.9911 110.987 26.9031 110.027 26.1031C109.099 25.3031 107.931 24.9031 106.523 24.9031ZM141.544 18.4231C144.776 18.4231 147.368 19.3831 149.32 21.3031C151.304 23.2231 152.296 26.1191 152.296 29.9911V44.8711H143.176V31.4791C143.176 27.9271 141.752 26.1511 138.904 26.1511C137.336 26.1511 136.072 26.6631 135.112 27.6871C134.184 28.7111 133.72 30.2471 133.72 32.2951V44.8711H124.6V18.8551H133.288V21.6871C134.312 20.6311 135.528 19.8311 136.936 19.2871C138.344 18.7111 139.88 18.4231 141.544 18.4231ZM158.454 11.2711H174.342C178.022 11.2711 181.286 11.9591 184.134 13.3351C186.982 14.7111 189.19 16.6631 190.758 19.1911C192.326 21.7191 193.11 24.6791 193.11 28.0711C193.11 31.4631 192.326 34.4231 190.758 36.9511C189.19 39.4791 186.982 41.4311 184.134 42.8071C181.286 44.1831 178.022 44.8711 174.342 44.8711H158.454V11.2711ZM173.958 37.2871C176.838 37.2871 179.142 36.4711 180.87 34.8391C182.63 33.2071 183.51 30.9511 183.51 28.0711C183.51 25.1911 182.63 22.9351 180.87 21.3031C179.142 19.6711 176.838 18.8551 173.958 18.8551H167.958V37.2871H173.958ZM210.734 45.3031C207.95 45.3031 205.438 44.7271 203.198 43.5751C200.958 42.4231 199.198 40.8231 197.918 38.7751C196.67 36.7271 196.046 34.4071 196.046 31.8151C196.046 29.2551 196.67 26.9511 197.918 24.9031C199.198 22.8551 200.942 21.2711 203.15 20.1511C205.39 18.9991 207.918 18.4231 210.734 18.4231C213.55 18.4231 216.078 18.9991 218.318 20.1511C220.558 21.2711 222.302 22.8551 223.55 24.9031C224.798 26.9191 225.422 29.2231 225.422 31.8151C225.422 34.4071 224.798 36.7271 223.55 38.7751C222.302 40.8231 220.558 42.4231 218.318 43.5751C216.078 44.7271 213.55 45.3031 210.734 45.3031ZM210.734 38.0551C212.334 38.0551 213.646 37.5111 214.67 36.4231C215.694 35.3031 216.206 33.7671 216.206 31.8151C216.206 29.8951 215.694 28.3911 214.67 27.3031C213.646 26.2151 212.334 25.6711 210.734 25.6711C209.134 25.6711 207.822 26.2151 206.798 27.3031C205.774 28.3911 205.262 29.8951 205.262 31.8151C205.262 33.7671 205.774 35.3031 206.798 36.4231C207.822 37.5111 209.134 38.0551 210.734 38.0551ZM272.048 18.8551L262.784 44.8711H253.952L249.056 30.7111L243.968 44.8711H235.136L225.872 18.8551H234.512L239.84 34.5991L245.36 18.8551H253.136L258.512 34.7431L264.032 18.8551H272.048ZM291.778 18.4231C295.01 18.4231 297.602 19.3831 299.554 21.3031C301.538 23.2231 302.53 26.1191 302.53 29.9911V44.8711H293.41V31.4791C293.41 27.9271 291.986 26.1511 289.138 26.1511C287.57 26.1511 286.306 26.6631 285.346 27.6871C284.418 28.7111 283.954 30.2471 283.954 32.2951V44.8711H274.834V18.8551H283.522V21.6871C284.546 20.6311 285.762 19.8311 287.17 19.2871C288.578 18.7111 290.114 18.4231 291.778 18.4231Z" fill="#18191F"/>
<g filter="url(#filter0_d_15_1896)">
<rect y="2.87109" width="48" height="48" rx="16" fill="#F4F5F7"/>
<rect x="1" y="3.87109" width="46" height="46" rx="15" stroke="#18191F" stroke-width="2"/>
</g>
<rect x="-0.923316" y="-1.20656" width="2.5" height="24.428" transform="matrix(1 0 -0.261347 0.965245 36.6847 15.8292)" fill="#FFBD12" stroke="#FFBD12" stroke-width="2.5" stroke-linejoin="round"/>
<rect x="-0.923316" y="-1.20656" width="2.5" height="9.80933" transform="matrix(1 0 -0.261347 0.965245 26.5501 15.8292)" fill="#61E4C5" stroke="#61E4C5" stroke-width="2.5" stroke-linejoin="round"/>
<rect x="-0.923316" y="-1.20656" width="2.5" height="9.80933" transform="matrix(1 0 -0.261347 0.965245 22.7295 29.9398)" fill="#FFBD12" stroke="#FFBD12" stroke-width="2.5" stroke-linejoin="round"/>
<rect x="-0.923316" y="-1.20656" width="2.5" height="24.428" transform="matrix(1 0 -0.261347 0.965245 16.4155 15.8292)" fill="#61E4C5" stroke="#61E4C5" stroke-width="2.5" stroke-linejoin="round"/>
<defs>
<filter id="filter0_d_15_1896" x="0" y="2.87109" width="48" height="50" filterUnits="userSpaceOnUse" color-interpolation-filters="sRGB">
<feFlood flood-opacity="0" result="BackgroundImageFix"/>
<feColorMatrix in="SourceAlpha" type="matrix" values="0 0 0 0 0 0 0 0 0 0 0 0 0 0 0 0 0 0 127 0" result="hardAlpha"/>
<feOffset dy="2"/>
<feColorMatrix type="matrix" values="0 0 0 0 0.0941176 0 0 0 0 0.0980392 0 0 0 0 0.121569 0 0 0 1 0"/>
<feBlend mode="normal" in2="BackgroundImageFix" result="effect1_dropShadow_15_1896"/>
<feBlend mode="normal" in="SourceGraphic" in2="effect1_dropShadow_15_1896" result="shape"/>
</filter>
</defs>
</svg>
