<svg width="18" height="18" viewBox="0 0 18 18" fill="none" xmlns="http://www.w3.org/2000/svg">
<g clip-path="url(#clip0)">
<path d="M17.25 1.5H0.75C0.551088 1.5 0.360322 1.57902 0.21967 1.71967C0.0790176 1.86032 0 2.05109 0 2.25L0 15.75C0 15.9489 0.0790176 16.1397 0.21967 16.2803C0.360322 16.421 0.551088 16.5 0.75 16.5H17.25C17.4489 16.5 17.6397 16.421 17.7803 16.2803C17.921 16.1397 18 15.9489 18 15.75V2.25C18 2.05109 17.921 1.86032 17.7803 1.71967C17.6397 1.57902 17.4489 1.5 17.25 1.5ZM16.5 15H15V14.25H11.25V15H1.5V3H16.5V15ZM7.7175 7.2825C7.7175 6.94236 7.85262 6.61615 8.09314 6.37564C8.33365 6.13512 8.65986 6 9 6C9.7125 6 10.2825 6.5775 10.2825 7.2825C10.2825 7.995 9.7125 8.5725 9 8.5725C8.2875 8.5725 7.7175 7.995 7.7175 7.2825ZM4.2825 8.4675C4.2825 7.935 4.7175 7.5 5.25 7.5C5.5066 7.5 5.75268 7.60193 5.93413 7.78337C6.11557 7.96482 6.2175 8.2109 6.2175 8.4675C6.2175 9 5.7825 9.4275 5.25 9.4275C4.7175 9.4275 4.2825 9 4.2825 8.4675ZM11.7825 8.4675C11.7825 8.2109 11.8844 7.96482 12.0659 7.78337C12.2473 7.60193 12.4934 7.5 12.75 7.5C13.0066 7.5 13.2527 7.60193 13.4341 7.78337C13.6156 7.96482 13.7175 8.2109 13.7175 8.4675C13.7175 9 13.2825 9.4275 12.75 9.4275C12.2175 9.4275 11.7825 9 11.7825 8.4675ZM15 11.355V12H3V11.355C3 10.65 4.1625 10.0725 5.25 10.0725C5.6625 10.0725 6.0825 10.155 6.45 10.2975C7.0125 9.78 8.025 9.4275 9 9.4275C9.975 9.4275 10.9875 9.78 11.55 10.2975C11.9175 10.155 12.3375 10.0725 12.75 10.0725C13.8375 10.0725 15 10.65 15 11.355Z" fill="currentColor"/>
</g>
<defs>
<clipPath id="clip0">
<rect width="18" height="18" fill="white"/>
</clipPath>
</defs>
</svg>
