<svg width="18" height="18" viewBox="0 0 18 18" fill="none" xmlns="http://www.w3.org/2000/svg">
<path d="M6 9L8.25 11.25L12 7.5" stroke="currentColor" stroke-width="2" stroke-linecap="round" stroke-linejoin="round"/>
<path d="M2.25 9C2.25 8.11358 2.42459 7.23583 2.76381 6.41689C3.10303 5.59794 3.60023 4.85382 4.22703 4.22703C4.85382 3.60023 5.59794 3.10303 6.41689 2.76381C7.23583 2.42459 8.11358 2.25 9 2.25C9.88642 2.25 10.7642 2.42459 11.5831 2.76381C12.4021 3.10303 13.1462 3.60023 13.773 4.22703C14.3998 4.85382 14.897 5.59794 15.2362 6.41689C15.5754 7.23583 15.75 8.11358 15.75 9C15.75 10.7902 15.0388 12.5071 13.773 13.773C12.5071 15.0388 10.7902 15.75 9 15.75C7.20979 15.75 5.4929 15.0388 4.22703 13.773C2.96116 12.5071 2.25 10.7902 2.25 9V9Z" stroke="currentColor" stroke-width="2" stroke-linecap="round"/>
</svg>
