<svg width="18" height="18" viewBox="0 0 18 18" fill="none" xmlns="http://www.w3.org/2000/svg">
<path d="M9 16.5L10.875 15M9 16.5V9.75V16.5ZM9 16.5L7.125 15L9 16.5Z" stroke="currentColor" stroke-width="2" stroke-linecap="round" stroke-linejoin="round"/>
<path d="M3.77541 6.83777C3.06607 7.01626 2.44632 7.44764 2.0326 8.05085C1.61888 8.65406 1.43967 9.38758 1.52864 10.1136C1.61761 10.8396 1.96863 11.5082 2.51576 11.9936C3.06289 12.4791 3.76846 12.7481 4.49991 12.75H5.24991" stroke="currentColor" stroke-width="2" stroke-linecap="round" stroke-linejoin="round"/>
<path d="M11.8725 5.35353C11.6162 4.33846 10.9834 3.45884 10.1026 2.89298C9.22175 2.32711 8.1587 2.11735 7.12894 2.30621C6.09918 2.49507 5.17975 3.06842 4.55704 3.91004C3.93434 4.75165 3.65494 5.79856 3.7755 6.83853C3.7755 6.83853 3.89025 7.50003 4.125 7.87503" stroke="currentColor" stroke-width="2" stroke-linecap="round" stroke-linejoin="round"/>
<path d="M12.75 12.75C13.2795 12.7496 13.803 12.6371 14.2859 12.4199C14.7688 12.2027 15.2002 11.8856 15.5518 11.4896C15.9033 11.0936 16.167 10.6277 16.3255 10.1224C16.484 9.61714 16.5337 9.08405 16.4713 8.55821C16.4089 8.03237 16.2359 7.5257 15.9636 7.07155C15.6913 6.61741 15.3259 6.22609 14.8914 5.92334C14.457 5.62059 13.9633 5.41329 13.443 5.31507C12.9227 5.21685 12.3874 5.22995 11.8725 5.3535L10.875 5.625" stroke="currentColor" stroke-width="2" stroke-linecap="round" stroke-linejoin="round"/>
</svg>
