<svg width="18" height="18" viewBox="0 0 18 18" fill="none" xmlns="http://www.w3.org/2000/svg">
<path d="M15 2.25H3C2.80109 2.25 2.61032 2.32902 2.46967 2.46967C2.32902 2.61032 2.25 2.80109 2.25 3V4.9425C2.25 5.33475 2.40975 5.72025 2.68725 5.99775L6.75 10.0605V15.75C6.75015 15.8778 6.78291 16.0034 6.84517 16.115C6.90744 16.2266 6.99716 16.3204 7.10583 16.3876C7.2145 16.4548 7.33853 16.4932 7.46618 16.4991C7.59382 16.505 7.72085 16.4782 7.83525 16.4213L10.8352 14.9213C11.0895 14.7938 11.25 14.5343 11.25 14.25V10.0605L15.3127 5.99775C15.5903 5.72025 15.75 5.33475 15.75 4.9425V3C15.75 2.80109 15.671 2.61032 15.5303 2.46967C15.3897 2.32902 15.1989 2.25 15 2.25ZM9.96975 9.21975C9.89997 9.28928 9.84463 9.37192 9.80691 9.46293C9.7692 9.55393 9.74986 9.65149 9.75 9.75V13.7865L8.25 14.5365V9.75C8.25014 9.65149 8.2308 9.55393 8.19309 9.46293C8.15537 9.37192 8.10003 9.28928 8.03025 9.21975L3.75 4.9425V3.75H14.2507L14.2523 4.93725L9.96975 9.21975Z" fill="currentColor"/>
</svg>
