<svg width="18" height="18" viewBox="0 0 18 18" fill="none" xmlns="http://www.w3.org/2000/svg">
<path d="M16.5 14.25V6.75C16.5 6.35218 16.342 5.97064 16.0607 5.68934C15.7794 5.40804 15.3978 5.25 15 5.25H9.927C9.64838 5.24999 9.37527 5.17238 9.13828 5.02587C8.90129 4.87936 8.70979 4.66974 8.58525 4.4205L7.91475 3.0795C7.79015 2.83015 7.59853 2.62045 7.3614 2.47393C7.12427 2.32741 6.851 2.24987 6.57225 2.25H3C2.60218 2.25 2.22064 2.40804 1.93934 2.68934C1.65804 2.97064 1.5 3.35218 1.5 3.75V14.25C1.5 14.6478 1.65804 15.0294 1.93934 15.3107C2.22064 15.592 2.60218 15.75 3 15.75H15C15.3978 15.75 15.7794 15.592 16.0607 15.3107C16.342 15.0294 16.5 14.6478 16.5 14.25Z" stroke="currentColor" stroke-width="2" stroke-linecap="round" stroke-linejoin="round"/>
</svg>
