<svg width="18" height="18" viewBox="0 0 18 18" fill="none" xmlns="http://www.w3.org/2000/svg">
<path fill-rule="evenodd" clip-rule="evenodd" d="M9.5 2C5.35625 2 2 5.35625 2 9.5C2 12.8188 4.14687 15.6219 7.12813 16.6156C7.50313 16.6813 7.64375 16.4563 7.64375 16.2594C7.64375 16.0813 7.63438 15.4906 7.63438 14.8625C5.75 15.2094 5.2625 14.4031 5.1125 13.9812C5.02813 13.7656 4.6625 13.1 4.34375 12.9219C4.08125 12.7812 3.70625 12.4344 4.33437 12.425C4.925 12.4156 5.34687 12.9688 5.4875 13.1938C6.1625 14.3281 7.24062 14.0094 7.67188 13.8125C7.7375 13.325 7.93438 12.9969 8.15 12.8094C6.48125 12.6219 4.7375 11.975 4.7375 9.10625C4.7375 8.29063 5.02813 7.61563 5.50625 7.09063C5.43125 6.90313 5.16875 6.13438 5.58125 5.10313C5.58125 5.10313 6.20937 4.90625 7.64375 5.87188C8.24375 5.70312 8.88125 5.61875 9.51875 5.61875C10.1562 5.61875 10.7937 5.70312 11.3938 5.87188C12.8281 4.89688 13.4563 5.10313 13.4563 5.10313C13.8687 6.13438 13.6063 6.90313 13.5312 7.09063C14.0094 7.61563 14.3 8.28125 14.3 9.10625C14.3 11.9844 12.5469 12.6219 10.8781 12.8094C11.15 13.0437 11.3844 13.4937 11.3844 14.1969C11.3844 15.2 11.375 16.0063 11.375 16.2594C11.375 16.4563 11.5156 16.6906 11.8906 16.6156C13.3795 16.113 14.6732 15.1561 15.5898 13.8796C16.5063 12.6032 16.9996 11.0714 17 9.5C17 5.35625 13.6438 2 9.5 2Z" fill="currentColor"/>
</svg>
