<svg width="18" height="18" viewBox="0 0 18 18" fill="none" xmlns="http://www.w3.org/2000/svg">
<path d="M0 9C0 4.02944 4.02944 0 9 0C13.9706 0 18 4.02944 18 9C18 13.9706 13.9706 18 9 18C4.02944 18 0 13.9706 0 9Z" fill="currentColor"/>
<path d="M2.07112 18C2.68809 18 3.03085 17.6535 3.27078 16.7731L3.92202 14.6001H8.02656L8.68638 16.7731C8.91774 17.6441 9.27763 18 9.90317 18C10.563 18 11 17.5692 11 16.8948C11 16.6326 10.94 16.3235 10.8201 15.9207L7.87232 6.68588C7.50386 5.48703 6.98972 5 6.02142 5C5.04456 5 4.52185 5.4964 4.15338 6.68588L1.20566 15.9207C1.05998 16.3984 1 16.6888 1 16.9416C1 17.5785 1.43702 18 2.07112 18ZM4.43616 12.7176L5.92716 7.54755H6.03856L7.52099 12.7176H4.43616Z" fill="white"/>
<path d="M13.4217 9.04324V6.34324H16.0074C16.6163 6.34324 17 5.98649 17 5.44324C17 4.9 16.6163 4.54324 16.0074 4.54324H13.4217V1.95676C13.4217 1.38108 13.038 1 12.4791 1C11.912 1 11.5366 1.38108 11.5366 1.95676V4.54324H8.98424C8.38369 4.54324 8 4.90811 8 5.44324C8 5.98649 8.38369 6.34324 8.98424 6.34324H11.5366V9.04324C11.5366 9.62703 11.9203 10 12.4791 10C13.038 10 13.4217 9.62703 13.4217 9.04324Z" fill="white"/>
<circle cx="9" cy="9" r="8.25" stroke="currentColor" stroke-width="1.5"/>
</svg>
