<svg width="18" height="18" viewBox="0 0 18 18" fill="none" xmlns="http://www.w3.org/2000/svg">
<path d="M10.2143 1.5C8.28199 1.5 6.42884 2.29018 5.06251 3.6967C3.69617 5.10322 2.92857 7.01087 2.92857 9H0.5L3.64905 12.2417L3.70571 12.3583L6.97619 9H4.54762C4.54762 5.775 7.08143 3.16667 10.2143 3.16667C13.3471 3.16667 15.881 5.775 15.881 9C15.881 12.225 13.3471 14.8333 10.2143 14.8333C8.65191 14.8333 7.23524 14.175 6.21524 13.1167L5.06571 14.3C5.74038 14.9983 6.54268 15.5523 7.42634 15.9299C8.30999 16.3075 9.25753 16.5012 10.2143 16.5C12.1466 16.5 13.9997 15.7098 15.3661 14.3033C16.7324 12.8968 17.5 10.9891 17.5 9C17.5 7.01087 16.7324 5.10322 15.3661 3.6967C13.9997 2.29018 12.1466 1.5 10.2143 1.5ZM9.40476 5.66666V9.83333L12.8695 11.95L13.4524 10.9417L10.619 9.20833V5.66666H9.40476Z" fill="currentColor"/>
</svg>
