<svg xmlns="http://www.w3.org/2000/svg" xmlns:xlink="http://www.w3.org/1999/xlink" width="635.02" height="635.02" viewBox="0 0 635.02 635.02">
  <defs>
    <filter id="Path_7" x="0" y="0" width="635.02" height="635.02" filterUnits="userSpaceOnUse">
      <feOffset dx="10" dy="15" input="SourceAlpha"/>
      <feGaussianBlur stdDeviation="12.5" result="blur"/>
      <feFlood flood-opacity="0.349"/>
      <feComposite operator="in" in2="blur"/>
      <feComposite in="SourceGraphic"/>
    </filter>
  </defs>
  <g id="Group_19" data-name="Group 19" transform="translate(-25.5 -30.5)">
    <g transform="matrix(1, 0, 0, 1, 25.5, 30.5)" filter="url(#Path_7)">
      <path id="Path_7-2" data-name="Path 7" d="M280.01,0C434.655,0,560.02,125.365,560.02,280.01S434.655,560.02,280.01,560.02,0,434.655,0,280.01,125.365,0,280.01,0Z" transform="translate(27.5 22.5)" fill="#faebd7"/>
    </g>
    <g id="Group_11" data-name="Group 11" transform="translate(-43 -92)">
      <g id="Group_1" data-name="Group 1" transform="matrix(0.985, -0.174, 0.174, 0.985, 117.152, 312.881)">
        <path id="Path_20" data-name="Path 20" d="M156.358,95.41q3.99-10.64,6.935-17.765T168.9,64.82q.95-1.9,1.9-3.705t1.9-3.515a71.322,71.322,0,0,1,16.815-20.52q9.6-7.79,19.855-8.93a6.64,6.64,0,0,1,1.615-.19H212.6q10.45,0,16.815,6.365t6.365,16.625q0,.57,0,1.14t0,1.14q-1.14,20.33-19.57,38.285a89.868,89.868,0,0,1-44.27,23.655,17.413,17.413,0,0,0-.95,2.28q-.38,1.14-.76,2.09a.548.548,0,0,0-.19.38.168.168,0,0,1-.19.19,14.287,14.287,0,0,1-.95,2.47,27.893,27.893,0,0,0-1.14,2.66q-1.33,2.85-2.185,4.465t-1.425,2.945a6.218,6.218,0,0,1-.38.665,6.212,6.212,0,0,0-.38.665,7.466,7.466,0,0,0-1.045,1.33,18.479,18.479,0,0,1-1.235,1.71q.76.38,1.615.76a9.937,9.937,0,0,0,1.615.57,62.969,62.969,0,0,0,9.31,2.945,36.987,36.987,0,0,0,8.17,1.045,12.233,12.233,0,0,0,8.265-3.04,9.085,9.085,0,0,0,3.515-7.03,6,6,0,0,0-1.235-4.18q-1.235-1.33-5.035-2.28a3.507,3.507,0,0,1-1.995-1.33,3.875,3.875,0,0,1-.665-2.28q0-4.37,7.7-7.695a43.931,43.931,0,0,1,17.575-3.325,24.9,24.9,0,0,1,18.05,7.22,23.5,23.5,0,0,1,7.41,17.48,30.882,30.882,0,0,1-11.5,24.7q-11.5,9.69-28.975,9.69-2.09,0-3.99-.1a25.964,25.964,0,0,1-3.8-.475,57.291,57.291,0,0,1-9.215-2.47,109.628,109.628,0,0,1-11.115-4.75,8.705,8.705,0,0,1-1.14-.475,10.618,10.618,0,0,1-1.14-.665h-.19l-6.08-3.04q-3.42-1.71-10.07-5.13a64.251,64.251,0,0,1-19.38,11.97,58.778,58.778,0,0,1-21.66,4.18q-13.87,0-22.705-6.935a22.163,22.163,0,0,1-8.835-18.335,21.512,21.512,0,0,1,7.885-16.91q7.885-6.84,19.855-6.84a69.871,69.871,0,0,1,17.48,2.47,168.083,168.083,0,0,1,21.47,7.41q1.33-2.09,2.28-3.895t1.9-3.705a30.359,30.359,0,0,0,1.33-3.61l1.14-3.8q-21.28-2.66-34.1-14.725A38.792,38.792,0,0,1,102.018,71.09,36.409,36.409,0,0,1,111.8,45.725q9.785-10.735,23.085-10.735,11.4,0,20.235,8.55t8.835,19.38a7.194,7.194,0,0,1-1.235,4.465A4.163,4.163,0,0,1,159.208,69h-1.33a4.163,4.163,0,0,1-1.425-1.045q-.855-.855-3.705-3.325a7.508,7.508,0,0,0-2.47-1.235,10.769,10.769,0,0,0-3.23-.475,9.633,9.633,0,0,0-7.6,3.23,12.45,12.45,0,0,0-2.85,8.55q0,7.6,4.655,12.35T156.358,95.41Zm-26.41,49.4q-1.71-.76-3.705-1.425t-3.895-1.235q-3.61-1.14-6.935-1.9a24.749,24.749,0,0,0-5.035-.76,7.3,7.3,0,0,0-4.75,1.71,5.216,5.216,0,0,0-2.09,4.18,5.514,5.514,0,0,0,2.66,4.56,10.823,10.823,0,0,0,6.46,1.9q1.33,0,2.565-.1a12.964,12.964,0,0,0,2.565-.475,19.849,19.849,0,0,0,5.415-2.09A71.81,71.81,0,0,0,129.948,144.81Zm49.21-48.45-.38,1.14a41.849,41.849,0,0,0,14.345-6.745A38.6,38.6,0,0,0,203.288,80.59,17.459,17.459,0,0,0,205,76.885a11.642,11.642,0,0,0,.57-3.515,5.378,5.378,0,0,0-1.71-4.085,5.861,5.861,0,0,0-4.18-1.615,8.77,8.77,0,0,0-1.235.1,7.058,7.058,0,0,0-1.235.285,10.439,10.439,0,0,0-3.7,2.09,20.278,20.278,0,0,0-3.325,3.61q-.57.76-.95,1.235t-.76,1.045a.843.843,0,0,1-.095.38,1.489,1.489,0,0,1-.285.38,38.472,38.472,0,0,0-2.375,4.845Q184.288,84.96,180.3,94.08Zm112.86-5.51q14.06,0,22.515,8.455t8.455,22.135a42.6,42.6,0,0,1-13.11,31.54q-13.11,12.92-32.11,12.92-13.68,0-22.515-8.55t-8.835-21.85a42.6,42.6,0,0,1,13.3-31.635A44.467,44.467,0,0,1,292.018,90.85Zm-3.04,18.81q-3.8,0-6.935,3.895a13.713,13.713,0,0,0-3.135,8.835,8.81,8.81,0,0,0,1.8,5.795,5.762,5.762,0,0,0,4.655,2.185q3.99,0,7.125-3.895a13.976,13.976,0,0,0,3.135-9.025,8.509,8.509,0,0,0-1.8-5.6A5.961,5.961,0,0,0,288.978,109.66Zm47.5,28.5,5.51-24.32q.38-1.71.57-3.135a17.843,17.843,0,0,0,.19-2.185,8.188,8.188,0,0,0-.57-3.23,11.118,11.118,0,0,0-1.9-2.85,13.357,13.357,0,0,1-1.14-.855,13.363,13.363,0,0,0-1.14-.855,62.173,62.173,0,0,1,5.89-4.18,47.125,47.125,0,0,1,6.08-3.23,41.279,41.279,0,0,1,7.41-2.565,30.456,30.456,0,0,1,7.03-.855,9.923,9.923,0,0,1,7.6,3.04,11.2,11.2,0,0,1,2.85,7.98,4.4,4.4,0,0,1-.1.855,5.339,5.339,0,0,0-.1,1.045.843.843,0,0,1-.1.38.843.843,0,0,0-.1.38l-6.27,28.31a12.814,12.814,0,0,0-.285,1.52,12.814,12.814,0,0,1-.285,1.52v1.52a6.368,6.368,0,0,0,1.9,4.845,7.142,7.142,0,0,0,5.13,1.805q6.84,0,11.685-6.555t7.885-20.045q-1.33.19-2.47.38a11.431,11.431,0,0,1-1.71.19,11.073,11.073,0,0,1-8.17-3.23,11.312,11.312,0,0,1-3.23-8.36,14.66,14.66,0,0,1,4.94-11.21,17.013,17.013,0,0,1,11.97-4.56,15.383,15.383,0,0,1,11.97,5.035q4.56,5.035,4.56,13.205a48.008,48.008,0,0,1-.665,7.7,70.743,70.743,0,0,1-1.8,8.075,75.354,75.354,0,0,1-6.27,14.82,53.971,53.971,0,0,1-8.93,12.16,49.981,49.981,0,0,1-12.825,9.31,44.546,44.546,0,0,1-14.535,4.56q-1.33.19-2.755.285t-2.755.1q-11.59,0-18.62-5.985t-7.03-15.865a16.852,16.852,0,0,1,.19-2.565Q336.288,139.3,336.478,138.16Zm116.66-1.17v.953a7.06,7.06,0,0,0,2.755,5.814,10.788,10.788,0,0,0,6.935,2.192,25.328,25.328,0,0,0,5.32-.665,32.473,32.473,0,0,0,6.08-2q1.14-.38,2.28-.855t2.28-1.045l.57-.285a1.489,1.489,0,0,0,.38-.285q.38-.19,1.615-.855t6.365-3.895a15.821,15.821,0,0,1,1.52-.665,13.991,13.991,0,0,1,1.52-.475,1.686,1.686,0,0,1,.76-.19h.76a4.442,4.442,0,0,1,3.135,1.14,4.177,4.177,0,0,1,1.235,3.23q0,3.04-2.66,6.65a42.834,42.834,0,0,1-7.6,7.6,67.589,67.589,0,0,1-17.005,9.785A48.105,48.105,0,0,1,452,166.47q-14.44,0-23.655-8.571t-9.215-22.476q0-18.095,15.105-31.619A51.183,51.183,0,0,1,469.478,90.28q10.83,0,17.765,5.529a17.455,17.455,0,0,1,6.935,14.3q0,10.866-11.5,18.4T453.138,136.99Zm1.9-17.07q7.79-1.14,11.495-3.23t3.705-5.32a4.442,4.442,0,0,0-1.14-3.135,3.717,3.717,0,0,0-2.85-1.235q-3.61,0-6.65,3.42A22.19,22.19,0,0,0,455.038,119.92Z" transform="translate(-55.445 -30.614)" fill="#786c5f"/>
        <path id="Path_1" data-name="Path 1" d="M0,0" transform="translate(3.788 81.527)" fill="#786c5f" stroke="#707070" stroke-width="1"/>
      </g>
      <path id="Path_5" data-name="Path 5" d="M-1.389,7.878,348.611,0" transform="matrix(0.985, -0.174, 0.174, 0.985, 234.731, 600.419)" fill="none" stroke="#ae9f90" stroke-width="7"/>
      <path id="Path_21" data-name="Path 21" d="M-182.189-66.328a5.733,5.733,0,0,1,1.7-1.7,4.649,4.649,0,0,1,2.168-.41,6.673,6.673,0,0,1,3.574,1.055,3.961,3.961,0,0,1,1.934,3.047,53.4,53.4,0,0,1,.527,6.621q.059,3.34,0,6.68l-.117,6.68q-.059,3.34.176,6.621.469,7.969,1.465,16.523a142.927,142.927,0,0,1,1,16.523,5.554,5.554,0,0,1-.937,3.516Q-171.642,0-174.337,0a4.028,4.028,0,0,1-3.4-1.523,9.76,9.76,0,0,1-1.7-3.633,22.633,22.633,0,0,1-.645-4.277q-.117-2.168-.117-3.457,0-.937-.176-3.926t-.352-7.031q-.176-4.043-.41-8.555t-.469-8.555q-.234-4.043-.41-7.031t-.176-3.926V-66.328Zm21.736,62.813q-.234-13.008-.645-25.957t-.41-25.957v-3.34q0-2.4.059-5.1t.059-5.039v-3.281a7.341,7.341,0,0,1,1.406-2.988,3.619,3.619,0,0,1,2.93-1.113,5.435,5.435,0,0,1,3.516,1.23,10.133,10.133,0,0,1,2.461,2.871L-134.2-39.609q.117.234.82,1.406t1.055,1.641a1.363,1.363,0,0,0,.352.234q.234.117.234.234l.469-1.055,9.961-35.039a12.554,12.554,0,0,0,1.582-3.691q.527-2.051,1.172-4.043a20.186,20.186,0,0,1,1.641-3.75,7.978,7.978,0,0,1,2.988-2.93h.938a5.775,5.775,0,0,1,4.688,1.816,10.268,10.268,0,0,1,2.109,4.453,23.132,23.132,0,0,1,.527,5.508q-.059,2.871.059,4.98,0,.82.176,3.164t.41,5.508q.234,3.164.469,6.738t.41,6.738q.176,3.164.352,5.508t.176,3.047v.469q.117,1.055.469,3.516t.762,5.215q.41,2.754.762,5.215t.586,3.4q.117.586.41,1.758t.7,2.52q.41,1.348.762,2.52a11.561,11.561,0,0,0,.586,1.641,12.349,12.349,0,0,1-1.348,4.16q-.879,1.465-3.809,1.465-.352,0-1.055-.059t-.82-.059a13.786,13.786,0,0,1-1.348-1.172,4.723,4.723,0,0,1-1.113-1.289l-1.875-6.445-3.516-26.719v-1.055q-.117-2.109-.117-4.512t-.059-4.863q-.059-2.461-.293-4.922a20.594,20.594,0,0,0-.937-4.57l-.586.7-8.437,33.984q-.117,1.289-.234,2.754a11.257,11.257,0,0,1-.586,2.813,5.936,5.936,0,0,1-1.406,2.285,4.05,4.05,0,0,1-2.7,1.055,2.713,2.713,0,0,1-1.523-.234,8.79,8.79,0,0,1-1.641-.937,8.007,8.007,0,0,1-1.465-1.348,3.123,3.123,0,0,1-.762-1.465l-14.883-23.672-2.461-4.922v10.078q0,7.148.293,14t.293,14v2.051q0,1.465-.059,3.105t-.059,3.105v2.051a7.51,7.51,0,0,1-1.348,2.461A3.1,3.1,0,0,1-154.945,0,6.576,6.576,0,0,1-158.4-.762,5.612,5.612,0,0,1-160.453-3.516ZM-40.341-14.648q0-7.148.293-14.355t.645-14.414q.352-7.207.527-14.414t-.059-14.355a3.3,3.3,0,0,1,1.289-1.934,3.833,3.833,0,0,1,2.227-.645,6.65,6.65,0,0,1,3.75.879,5,5,0,0,1,1.875,2.4,11.408,11.408,0,0,1,.7,3.4l.234,3.75a33.614,33.614,0,0,0,3.34,4.98,48.375,48.375,0,0,1,3.457,4.863,1.908,1.908,0,0,0,.176.527q.176.41.293.41.7,1.055,1.816,2.754t2.168,3.281q1.055,1.582,1.816,2.754l.762,1.172.469.586,6.8,9.844a1.286,1.286,0,0,0,.82.469h.234Q-8.231-45.117-9.169-58.066t-.938-25.605v-5.859a3.419,3.419,0,0,1,3.164-1.523A4.476,4.476,0,0,1-3.661-90a5.247,5.247,0,0,1,1.406,2.637,15.647,15.647,0,0,1,.352,3.4q0,1.816.117,3.34a1.343,1.343,0,0,0,.117.41,8.249,8.249,0,0,1,.293,1.289q.176,1,.352,3.047T-.555-70.2q.293,3.633.586,9.141T.792-47.578v2.109L4.777-19.336a11.348,11.348,0,0,0,1,2.871,7.98,7.98,0,0,1,.879,2.988A5.642,5.642,0,0,1,5.245-9.492,5.152,5.152,0,0,1,1.261-7.969a2.27,2.27,0,0,1-.937-.293q-.586-.293-1.172-.645a11.181,11.181,0,0,1-1.113-.762,8.791,8.791,0,0,1-.762-.645L-21.591-37.148q-.117,0-.234-.41a3.866,3.866,0,0,0-.234-.645q-.7-1.055-1.875-2.637T-26.161-44q-1.055-1.582-1.875-2.754a7.542,7.542,0,0,1-.82-1.289l-.586-.469q-.586,11.133-.937,22.441t0,22.559a4.084,4.084,0,0,1-1.465,2.461A3.857,3.857,0,0,1-34.364,0a5.268,5.268,0,0,1-3.691-1.23,10.141,10.141,0,0,1-2.285-3.223Zm60.056,10.2q-1.172-11.719-1.992-20.039T16.317-38.437q-.586-5.625-1-8.965t-.645-5.039q-.234-1.7-.352-2.285a5.847,5.847,0,0,1-.117-.7V-55.9a2.667,2.667,0,0,1,1.113-2.168,3.658,3.658,0,0,1,2.285-.879,13.922,13.922,0,0,1,3.809.586A3.9,3.9,0,0,1,24.169-55.9a104.6,104.6,0,0,1,1.465,11.6q.41,5.859.7,11.66t.82,11.66a78.159,78.159,0,0,0,1.934,11.6,4.926,4.926,0,0,0,.176.938q.176.7.352,1.523t.293,1.523a7.191,7.191,0,0,1,.117.938v.234a.338.338,0,0,0,.117.234,4.2,4.2,0,0,1-1.289,2.813A2.957,2.957,0,0,1,26.161,0q-.352-.117-1.7-.41a9.011,9.011,0,0,1-1.816-.527,4.03,4.03,0,0,1-.937-.527,12.233,12.233,0,0,1-1.113-.879A4.512,4.512,0,0,1,19.716-3.4.877.877,0,0,1,19.716-4.453Zm-6.562-85.43q0-.82,1.348-1.465a5.343,5.343,0,0,1,2.051-.645,9.536,9.536,0,0,1,3.926,1,3.2,3.2,0,0,1,2.168,2.988,4.813,4.813,0,0,1-.527,2.7q-.527.7-2.52.7a7.836,7.836,0,0,1-4.277-1.406A4.383,4.383,0,0,1,13.153-89.883ZM42.623,40.9a4.449,4.449,0,0,1,.059-2.93,3.032,3.032,0,0,1,2.168-2.109,20.012,20.012,0,0,0,5.625,1.523,29.917,29.917,0,0,0,5.918.117,38.078,38.078,0,0,0,5.918-.937q2.93-.7,5.625-1.641a11.57,11.57,0,0,0,3.75-5.8,31.424,31.424,0,0,0,.82-9.727A148.326,148.326,0,0,0,70.924,4.043q-1.348-9.2-3.457-22.559,0-.352.059-1.055a5.127,5.127,0,0,0-.059-1.348,2.133,2.133,0,0,0-.41-1q-.293-.352-.762,0-1.523,2.93-3.574,6.387a42.461,42.461,0,0,1-4.687,6.445A26.111,26.111,0,0,1,52.174-4.1a13.43,13.43,0,0,1-7.207,1.992A9.734,9.734,0,0,1,38.815-4.16a7.049,7.049,0,0,1-2.637-5.918,28.824,28.824,0,0,1,1.23-7.383,76.7,76.7,0,0,1,3.34-9.434,93.312,93.312,0,0,1,4.922-9.9A79.931,79.931,0,0,1,51.53-45.7a36.911,36.911,0,0,1,6.211-6.5,9.918,9.918,0,0,1,6.094-2.52,15.76,15.76,0,0,1,3.105.41,18.325,18.325,0,0,1,3.75,1.23,15.383,15.383,0,0,1,3.164,1.875A3.073,3.073,0,0,1,75.2-48.75v9.492l7.617,55.313q0,4.687-.176,8.965a25.638,25.638,0,0,1-1.523,7.91,17.105,17.105,0,0,1-4.277,6.445,21.455,21.455,0,0,1-8.437,4.57,10.194,10.194,0,0,1-2.93.586q-2.227.234-5.1.352t-6.094,0a50.192,50.192,0,0,1-5.859-.527,14.746,14.746,0,0,1-4.277-1.23A2.251,2.251,0,0,1,42.623,40.9ZM60.9-44.3A41.29,41.29,0,0,0,57.8-40.2q-1.934,2.813-3.926,6.211t-3.926,7.09a59.36,59.36,0,0,0-3.105,6.855,25.714,25.714,0,0,0-1.465,5.391q-.293,2.227,1,2.7a20.925,20.925,0,0,0,5.273-4.277,54.767,54.767,0,0,0,5.332-6.68,62.446,62.446,0,0,0,4.453-7.617,34.791,34.791,0,0,0,2.7-7.09,9.469,9.469,0,0,0,.117-5.1Q63.6-44.648,60.9-44.3ZM89.789-57.3A94.126,94.126,0,0,0,89.2-71.367a120.258,120.258,0,0,1-.82-13.945q0-2.227,1.289-2.754a7.681,7.681,0,0,1,2.93-.527A5.779,5.779,0,0,1,96.469-87.3a5.22,5.22,0,0,1,1.758,3.633q1.055,12.773,1.23,25.254a241.915,241.915,0,0,0,1.7,25.254,58.494,58.494,0,0,1,7.266-11.016,20.154,20.154,0,0,1,7.207-5.742,6.389,6.389,0,0,1,6.328.527q2.871,1.934,4.629,7.617A61.862,61.862,0,0,1,128.7-26.309a178.645,178.645,0,0,1-1.172,24.316q-.82,0-1.992.059a14.762,14.762,0,0,1-2.285-.059,6.684,6.684,0,0,1-1.934-.469,1.5,1.5,0,0,1-.937-1.289q.938-8.789,1.055-14.766a72.668,72.668,0,0,0-.352-9.844,24.723,24.723,0,0,0-1.289-5.918,8.965,8.965,0,0,0-1.758-2.988,2.947,2.947,0,0,0-1.816-1,4.625,4.625,0,0,0-1.348.059q-2.578.938-4.863,4.57a40.2,40.2,0,0,0-3.926,8.438,55.659,55.659,0,0,0-2.4,10.137,42.9,42.9,0,0,0-.41,9.551l-.234,1.875a8.257,8.257,0,0,1-.41,1.758,3.012,3.012,0,0,1-.937,1.348A3,3,0,0,1,99.75,0a7.592,7.592,0,0,1-3.926-.879A5.947,5.947,0,0,1,93.6-3.164a8.484,8.484,0,0,1-.937-3.281,18.363,18.363,0,0,1,.059-3.867ZM147.15-34.219a5.34,5.34,0,0,0-2.93.82,5.553,5.553,0,0,1-3.047.82q-.234,0-1.23-.059t-1.23-.059a3.964,3.964,0,0,0-1.055-.937q-.586-.352-1.172-.762a4.022,4.022,0,0,1-1-1,2.83,2.83,0,0,1-.41-1.641,3.5,3.5,0,0,1,1.406-2.871,14.835,14.835,0,0,1,3.281-1.934q1.875-.82,3.809-1.523A10.955,10.955,0,0,0,146.681-45v-5.156q0-8.672-.82-17.4t-.82-17.285q0-2.344,1.172-3.047a6.127,6.127,0,0,1,3.164-.7,4.227,4.227,0,0,1,3.457,1.348,8.041,8.041,0,0,1,1.582,3.281,17.361,17.361,0,0,1,.469,4.1q0,2.168.117,3.691,0,1.523.234,5.391t.469,8.2q.234,4.336.469,8.2t.352,5.391a18.807,18.807,0,0,0,1.816-.645q1.348-.527,2.871-1.055l2.871-1q1.348-.469,1.934-.7,3.047-1.289,6.328-2.871a15.232,15.232,0,0,1,6.68-1.582,4.255,4.255,0,0,1,3.574,1.582,5.84,5.84,0,0,1,1.23,3.691,2.406,2.406,0,0,1-1.172,2.227,24.413,24.413,0,0,1-2.461,1.289l-21.328,7.969a6.55,6.55,0,0,1-.7.41,2.754,2.754,0,0,0-.7.527v3.75q0,4.1.176,8.5a83.734,83.734,0,0,0,.762,8.5q.586,3.516,1.289,6.914a34.036,34.036,0,0,1,.7,6.914,8.1,8.1,0,0,1-.7,2.813A2.357,2.357,0,0,1,157.462,0a7.219,7.219,0,0,1-5.156-1.875,7.382,7.382,0,0,1-2.227-5.039q-.586-6.094-1.23-13.359t-1.23-13.945Z" transform="matrix(0.985, -0.174, 0.174, 0.985, 408, 549)" fill="#58a6d6"/>
    </g>
  </g>
</svg>
