<svg width="18" height="18" viewBox="0 0 18 18" fill="none" xmlns="http://www.w3.org/2000/svg">
<path fill-rule="evenodd" clip-rule="evenodd" d="M2 3.14875C2 2.84408 2.12103 2.5519 2.33646 2.33646C2.55189 2.12103 2.84408 2 3.14875 2H14.6C14.751 1.99975 14.9005 2.02929 15.0401 2.08692C15.1796 2.14455 15.3065 2.22913 15.4133 2.33584C15.5201 2.44254 15.6048 2.56927 15.6626 2.70876C15.7204 2.84825 15.7501 2.99777 15.75 3.14875V14.6C15.7502 14.751 15.7206 14.9006 15.6629 15.0401C15.6052 15.1797 15.5205 15.3065 15.4138 15.4133C15.307 15.5201 15.1802 15.6048 15.0407 15.6626C14.9012 15.7204 14.7516 15.7501 14.6006 15.75H3.14875C2.99784 15.75 2.84841 15.7203 2.709 15.6625C2.56958 15.6047 2.44292 15.5201 2.33624 15.4133C2.22956 15.3066 2.14496 15.1799 2.08726 15.0404C2.02957 14.901 1.99992 14.7515 2 14.6006V3.14875ZM7.4425 7.2425H9.30438V8.1775C9.57313 7.64 10.2606 7.15625 11.2938 7.15625C13.2744 7.15625 13.7438 8.22688 13.7438 10.1913V13.83H11.7394V10.6388C11.7394 9.52 11.4706 8.88875 10.7881 8.88875C9.84125 8.88875 9.4475 9.56938 9.4475 10.6388V13.83H7.4425V7.2425ZM4.005 13.7444H6.01V7.15625H4.005V13.7438V13.7444ZM6.29688 5.0075C6.30066 5.17917 6.27011 5.34987 6.20703 5.50957C6.14394 5.66928 6.0496 5.81477 5.92952 5.93752C5.80945 6.06027 5.66606 6.1578 5.50778 6.22438C5.34951 6.29096 5.17953 6.32526 5.00781 6.32526C4.8361 6.32526 4.66612 6.29096 4.50784 6.22438C4.34956 6.1578 4.20618 6.06027 4.08611 5.93752C3.96603 5.81477 3.87168 5.66928 3.8086 5.50957C3.74552 5.34987 3.71497 5.17917 3.71875 5.0075C3.72617 4.67054 3.86524 4.34987 4.10618 4.11418C4.34712 3.87849 4.67077 3.74651 5.00781 3.74651C5.34486 3.74651 5.66851 3.87849 5.90945 4.11418C6.15038 4.34987 6.28946 4.67054 6.29688 5.0075Z" fill="currentColor"/>
</svg>
