<svg width="16" height="18" viewBox="0 0 16 18" fill="none" xmlns="http://www.w3.org/2000/svg">
<path d="M15.2178 11.2521C16.9469 12.9684 13.9885 18.388 8.28138 17.9779C2.39862 17.1577 0.818176 13.2638 0.818176 11.2521C0.818176 6.89113 7.98024 3.93837 11.0032 8.53156C13.3785 12.1405 13.8129 9.85776 15.2178 11.2521Z" fill="black"/>
<path d="M10.9522 10.5751C10.2163 11.2224 9.42966 9.45604 7.86999 8.92705C6.31032 8.39807 5.60539 8.40552 5.77587 7.96906C5.94635 7.5326 6.96893 7.13208 8.5286 7.66107C10.0883 8.19005 11.3727 10.2053 10.9522 10.5751Z" fill="#D2D2D3"/>
<rect x="5.56366" y="2.94543" width="0.736364" height="3.76364" fill="black"/>
<path d="M6.05455 3.44358C5.07273 4.31918 4.50365 4.39165 2.86729 4.10177C1.23093 3.81189 0.487254 1.41439 0 1.05204C0.978163 0.0374438 2.16708 -0.160689 3.44002 0.109915C5.48547 0.544741 6.05455 2.21752 6.05455 3.44358Z" fill="black"/>
<path d="M5.89089 3.44358C6.87271 4.31918 7.44178 4.39165 9.07814 4.10177C10.7145 3.81189 11.4582 1.41439 11.9454 1.05204C10.9673 0.0374438 9.77836 -0.160689 8.50542 0.109915C6.45996 0.544741 5.89089 2.21752 5.89089 3.44358Z" fill="black"/>
</svg>
