<svg width="32" height="36" viewBox="0 0 32 36" fill="none" xmlns="http://www.w3.org/2000/svg">
<path d="M30.4355 22.5043C33.8939 25.9368 27.9771 36.776 16.5628 35.9558C4.79724 34.3153 1.63635 26.5276 1.63635 22.5043C1.63635 13.7823 15.9605 7.87673 22.0065 17.0631C26.7569 24.281 27.6258 19.7155 30.4355 22.5043Z" fill="#18191F"/>
<path d="M21.9043 21.1503C20.4325 22.4448 18.8593 18.9121 15.7399 17.8541C12.6206 16.7961 11.2107 16.811 11.5517 15.9381C11.8926 15.0652 13.9378 14.2642 17.0571 15.3221C20.1765 16.3801 22.7453 20.4105 21.9043 21.1503Z" fill="white"/>
<rect x="11.1273" y="5.89087" width="1.47273" height="7.52727" fill="#18191F"/>
<path d="M12.1091 6.88717C10.1455 8.63837 9.0073 8.78331 5.73458 8.20354C2.46186 7.62377 0.974507 2.82879 0 2.10408C1.95633 0.0748875 4.33415 -0.321379 6.88004 0.21983C10.9709 1.08948 12.1091 4.43505 12.1091 6.88717Z" fill="#18191F"/>
<path d="M11.7818 6.88717C13.7455 8.63837 14.8836 8.78331 18.1563 8.20354C21.4291 7.62377 22.9164 2.82879 23.8909 2.10408C21.9346 0.0748875 19.5568 -0.321379 17.0109 0.21983C12.92 1.08948 11.7818 4.43505 11.7818 6.88717Z" fill="#18191F"/>
</svg>
