<svg width="18" height="18" viewBox="0 0 18 18" fill="none" xmlns="http://www.w3.org/2000/svg">
<path d="M5.25 3.75H15.75V5.25H5.25V3.75ZM5.25 9.75V8.25H15.75V9.75H5.25ZM3 3.375C3.29837 3.375 3.58452 3.49353 3.7955 3.7045C4.00647 3.91548 4.125 4.20163 4.125 4.5C4.125 4.79837 4.00647 5.08452 3.7955 5.2955C3.58452 5.50647 3.29837 5.625 3 5.625C2.70163 5.625 2.41548 5.50647 2.2045 5.2955C1.99353 5.08452 1.875 4.79837 1.875 4.5C1.875 4.20163 1.99353 3.91548 2.2045 3.7045C2.41548 3.49353 2.70163 3.375 3 3.375ZM3 7.875C3.29837 7.875 3.58452 7.99353 3.7955 8.2045C4.00647 8.41548 4.125 8.70163 4.125 9C4.125 9.29837 4.00647 9.58452 3.7955 9.7955C3.58452 10.0065 3.29837 10.125 3 10.125C2.70163 10.125 2.41548 10.0065 2.2045 9.7955C1.99353 9.58452 1.875 9.29837 1.875 9C1.875 8.70163 1.99353 8.41548 2.2045 8.2045C2.41548 7.99353 2.70163 7.875 3 7.875ZM5.25 14.25V12.75H15.75V14.25H5.25ZM3 12.375C3.29837 12.375 3.58452 12.4935 3.7955 12.7045C4.00647 12.9155 4.125 13.2016 4.125 13.5C4.125 13.7984 4.00647 14.0845 3.7955 14.2955C3.58452 14.5065 3.29837 14.625 3 14.625C2.70163 14.625 2.41548 14.5065 2.2045 14.2955C1.99353 14.0845 1.875 13.7984 1.875 13.5C1.875 13.2016 1.99353 12.9155 2.2045 12.7045C2.41548 12.4935 2.70163 12.375 3 12.375Z" fill="currentColor"/>
</svg>
