<svg width="18" height="18" viewBox="0 0 18 18" fill="none" xmlns="http://www.w3.org/2000/svg">
<path d="M3.75 3.75V14.25C3.75 14.5981 3.88828 14.9319 4.13442 15.1781C4.38056 15.4242 4.7144 15.5625 5.0625 15.5625H12.9375C13.2856 15.5625 13.6194 15.4242 13.8656 15.1781C14.1117 14.9319 14.25 14.5981 14.25 14.25V6.59944C14.25 6.42459 14.215 6.2515 14.1472 6.09035C14.0793 5.92919 13.98 5.78322 13.8549 5.661L10.9412 2.81156C10.696 2.57181 10.3667 2.43754 10.0238 2.4375H5.0625C4.7144 2.4375 4.38056 2.57578 4.13442 2.82192C3.88828 3.06806 3.75 3.4019 3.75 3.75V3.75Z" stroke="currentColor" stroke-width="1.5" stroke-linecap="round" stroke-linejoin="round"/>
<path d="M9 2.4375V5.9375C9 6.40163 9.18437 6.84675 9.51256 7.17494C9.84075 7.50313 10.2859 7.6875 10.75 7.6875H14.25" stroke="currentColor" stroke-width="1.5" stroke-linejoin="round"/>
</svg>
