<svg width="18" height="18" viewBox="0 0 18 18" fill="none" xmlns="http://www.w3.org/2000/svg">
<path d="M13.2188 13.0781V11.6719C13.2188 11.5945 13.1555 11.5312 13.0781 11.5312H4.92188C4.84453 11.5312 4.78125 11.5945 4.78125 11.6719V13.0781C4.78125 13.1555 4.84453 13.2188 4.92188 13.2188H13.0781C13.1555 13.2188 13.2188 13.1555 13.2188 13.0781ZM8.29688 9.70312V8.29688C8.29688 8.21953 8.23359 8.15625 8.15625 8.15625H4.92188C4.84453 8.15625 4.78125 8.21953 4.78125 8.29688V9.70312C4.78125 9.78047 4.84453 9.84375 4.92188 9.84375H8.15625C8.23359 9.84375 8.29688 9.78047 8.29688 9.70312ZM9.5625 6.32812V4.92188C9.5625 4.84453 9.49922 4.78125 9.42188 4.78125H4.92188C4.84453 4.78125 4.78125 4.84453 4.78125 4.92188L4.78125 6.32812C4.78125 6.40547 4.84453 6.46875 4.92188 6.46875H9.42188C9.49922 6.46875 9.5625 6.40547 9.5625 6.32812ZM1.96875 2.53125L1.96875 15.4688C1.96875 15.7799 2.22012 16.0312 2.53125 16.0312H15.4688C15.7799 16.0312 16.0312 15.7799 16.0312 15.4688V2.53125C16.0312 2.22012 15.7799 1.96875 15.4688 1.96875H2.53125C2.22012 1.96875 1.96875 2.22012 1.96875 2.53125ZM14.7656 3.23438V14.7656H3.23438L3.23438 3.23438H14.7656Z" fill="currentColor"/>
</svg>
