<svg width="18" height="18" viewBox="0 0 18 18" fill="none" xmlns="http://www.w3.org/2000/svg">
<path d="M6.04228 2.18712C6.05761 2.11153 6.0572 2.03371 6.04106 1.95828C6.02493 1.88284 5.99341 1.81133 5.94836 1.74798C5.90331 1.68463 5.84565 1.63073 5.77881 1.58947C5.71196 1.54822 5.63729 1.52044 5.55922 1.5078C5.48114 1.49516 5.40126 1.4979 5.32429 1.51588C5.24733 1.53385 5.17486 1.56668 5.11117 1.61242C5.04748 1.65817 4.99387 1.71589 4.95353 1.78218C4.91318 1.84847 4.88692 1.92197 4.87629 1.99832L2.5112 15.8129C2.49587 15.8885 2.49628 15.9663 2.51241 16.0417C2.52855 16.1172 2.56007 16.1887 2.60512 16.252C2.65017 16.3154 2.70782 16.3693 2.77467 16.4105C2.84151 16.4518 2.91619 16.4796 2.99426 16.4922C3.07233 16.5048 3.15222 16.5021 3.22918 16.4841C3.30615 16.4662 3.37862 16.4333 3.44231 16.3876C3.506 16.3418 3.5596 16.2841 3.59995 16.2178C3.6403 16.1515 3.66656 16.078 3.67719 16.0017L4.46949 11.3738C5.42262 11.5096 6.45262 11.5545 7.26384 12.1083C7.76575 12.4594 8.34615 12.6894 8.95725 12.7794C10.0996 12.9475 11.1213 12.3362 12.2494 12.5101L13.7737 12.7334C14.0812 12.7794 14.4005 12.5492 14.4466 12.2499L15.492 5.41857L15.4967 5.41397C15.5128 5.26359 15.4696 5.11289 15.3758 4.99235C15.2821 4.87181 15.1448 4.79043 14.9918 4.76468L13.4675 4.54135C12.3287 4.37672 11.3046 4.97075 10.1764 4.80613C9.67047 4.73133 9.1892 4.54336 8.77041 4.257C7.89651 3.66182 6.85587 3.56282 5.8306 3.42237L6.04346 2.18597L6.04228 2.18712ZM5.34458 6.26011L5.73482 3.98992C6.44316 4.08432 7.19289 4.13842 7.8492 4.41472L7.50035 6.67685C6.8263 6.40862 6.06593 6.35681 5.34576 6.26011H5.34458ZM4.56764 10.8074L4.95788 8.53491C5.69106 8.63391 6.46799 8.68457 7.15505 8.95856L7.50981 6.68376C8.28793 6.99459 8.88038 7.5276 9.74837 7.65193L10.1031 5.37252C10.9758 5.50031 11.6984 5.16876 12.5368 5.10314L12.182 7.36643C11.3424 7.4355 10.6164 7.78086 9.746 7.65423L9.4078 9.93133C8.53744 9.8047 7.94381 9.26938 7.16215 8.95971L6.80738 11.2345C6.10377 10.9594 5.31383 10.911 4.56764 10.8074ZM9.40898 9.93248C10.277 10.0591 11.0066 9.71145 11.8462 9.64353L12.182 7.36643C12.9566 7.29735 13.7489 7.49421 14.5093 7.60703L14.1782 9.88183C13.4166 9.77016 12.622 9.57215 11.8474 9.64353L11.4926 11.9183C10.6542 11.9736 9.91392 12.3328 9.05422 12.2061L9.40898 9.93133V9.93248Z" fill="currentColor"/>
</svg>
