<svg width="18" height="19" viewBox="0 0 18 19" fill="none" xmlns="http://www.w3.org/2000/svg">
<path d="M14.3549 9.95481C14.3849 9.72981 14.3999 9.49731 14.3999 9.24981C14.3999 9.00981 14.3849 8.76981 14.3474 8.54481L15.8699 7.35981C15.9355 7.30573 15.9803 7.23058 15.9967 7.14716C16.0131 7.06374 16.0001 6.9772 15.9599 6.90231L14.5199 4.41231C14.4775 4.33698 14.4098 4.27909 14.3288 4.24889C14.2478 4.21869 14.1587 4.21813 14.0774 4.24731L12.2849 4.96731C11.9099 4.68231 11.5124 4.44231 11.0699 4.26231L10.7999 2.35731C10.7866 2.27145 10.7429 2.19321 10.6769 2.13679C10.6108 2.08037 10.5267 2.0495 10.4399 2.04981H7.55985C7.37985 2.04981 7.23735 2.17731 7.20735 2.35731L6.93735 4.26231C6.49485 4.44231 6.08985 4.68981 5.72235 4.96731L3.92985 4.24731C3.76485 4.18731 3.57735 4.24731 3.48735 4.41231L2.05485 6.90231C1.96485 7.05981 1.99485 7.25481 2.14485 7.35981L3.66735 8.54481C3.62985 8.76981 3.59985 9.01731 3.59985 9.24981C3.59985 9.48231 3.61485 9.72981 3.65235 9.95481L2.12985 11.1398C2.06424 11.1939 2.01942 11.269 2.00301 11.3525C1.98659 11.4359 1.99962 11.5224 2.03985 11.5973L3.47985 14.0873C3.56985 14.2523 3.75735 14.3048 3.92235 14.2523L5.71485 13.5323C6.08985 13.8173 6.48735 14.0573 6.92985 14.2373L7.19985 16.1423C7.23735 16.3223 7.37985 16.4498 7.55985 16.4498H10.4399C10.6199 16.4498 10.7699 16.3223 10.7924 16.1423L11.0624 14.2373C11.5049 14.0573 11.9099 13.8173 12.2774 13.5323L14.0699 14.2523C14.2349 14.3123 14.4224 14.2523 14.5124 14.0873L15.9524 11.5973C16.0424 11.4323 16.0049 11.2448 15.8624 11.1398L14.3549 9.95481ZM8.99985 11.9498C7.51485 11.9498 6.29985 10.7348 6.29985 9.24981C6.29985 7.76481 7.51485 6.54981 8.99985 6.54981C10.4849 6.54981 11.6999 7.76481 11.6999 9.24981C11.6999 10.7348 10.4849 11.9498 8.99985 11.9498Z" fill="currentColor"/>
</svg>
