<svg width="136" height="52" viewBox="0 0 136 52" fill="none" xmlns="http://www.w3.org/2000/svg">
<g filter="url(#filter0_d_362_11789)">
<path d="M0 16C0 7.16344 7.16344 0 16 0H120C128.837 0 136 7.16344 136 16V32C136 40.8366 128.837 48 120 48H16C7.16344 48 0 40.8366 0 32V16Z" fill="#FFBD12"/>
<path d="M22.907 32.294C21.717 32.294 20.562 32.147 19.442 31.853C18.322 31.559 17.412 31.167 16.712 30.677L18.077 27.611C18.735 28.045 19.498 28.395 20.366 28.661C21.234 28.927 22.088 29.06 22.928 29.06C24.524 29.06 25.322 28.661 25.322 27.863C25.322 27.443 25.091 27.135 24.629 26.939C24.181 26.729 23.453 26.512 22.445 26.288C21.339 26.05 20.415 25.798 19.673 25.532C18.931 25.252 18.294 24.811 17.762 24.209C17.23 23.607 16.964 22.795 16.964 21.773C16.964 20.877 17.209 20.072 17.699 19.358C18.189 18.63 18.917 18.056 19.883 17.636C20.863 17.216 22.06 17.006 23.474 17.006C24.44 17.006 25.392 17.118 26.33 17.342C27.268 17.552 28.094 17.867 28.808 18.287L27.527 21.374C26.127 20.618 24.769 20.24 23.453 20.24C22.627 20.24 22.025 20.366 21.647 20.618C21.269 20.856 21.08 21.171 21.08 21.563C21.08 21.955 21.304 22.249 21.752 22.445C22.2 22.641 22.921 22.844 23.915 23.054C25.035 23.292 25.959 23.551 26.687 23.831C27.429 24.097 28.066 24.531 28.598 25.133C29.144 25.721 29.417 26.526 29.417 27.548C29.417 28.43 29.172 29.228 28.682 29.942C28.192 30.656 27.457 31.23 26.477 31.664C25.497 32.084 24.307 32.294 22.907 32.294ZM31.1487 20.618H35.1387V32H31.1487V20.618ZM33.1437 19.358C32.4157 19.358 31.8277 19.155 31.3797 18.749C30.9317 18.343 30.7077 17.839 30.7077 17.237C30.7077 16.635 30.9317 16.131 31.3797 15.725C31.8277 15.319 32.4157 15.116 33.1437 15.116C33.8717 15.116 34.4597 15.312 34.9077 15.704C35.3557 16.082 35.5797 16.572 35.5797 17.174C35.5797 17.804 35.3557 18.329 34.9077 18.749C34.4597 19.155 33.8717 19.358 33.1437 19.358ZM49.9747 20.618V29.921C49.9747 32.035 49.4007 33.617 48.2527 34.667C47.1047 35.731 45.4527 36.263 43.2967 36.263C42.1767 36.263 41.1267 36.137 40.1467 35.885C39.1667 35.633 38.3337 35.262 37.6477 34.772L39.0967 31.979C39.5587 32.357 40.1397 32.651 40.8397 32.861C41.5537 33.085 42.2537 33.197 42.9397 33.197C43.9897 33.197 44.7597 32.966 45.2497 32.504C45.7397 32.042 45.9847 31.356 45.9847 30.446V30.068C45.2147 30.964 44.0877 31.412 42.6037 31.412C41.5957 31.412 40.6647 31.188 39.8107 30.74C38.9567 30.278 38.2777 29.634 37.7737 28.808C37.2697 27.968 37.0177 27.002 37.0177 25.91C37.0177 24.832 37.2697 23.88 37.7737 23.054C38.2777 22.214 38.9567 21.57 39.8107 21.122C40.6647 20.66 41.5957 20.429 42.6037 20.429C44.2277 20.429 45.4177 20.954 46.1737 22.004V20.618H49.9747ZM43.5487 28.241C44.2627 28.241 44.8507 28.024 45.3127 27.59C45.7887 27.156 46.0267 26.596 46.0267 25.91C46.0267 25.224 45.7957 24.671 45.3337 24.251C44.8717 23.817 44.2767 23.6 43.5487 23.6C42.8207 23.6 42.2187 23.817 41.7427 24.251C41.2807 24.671 41.0497 25.224 41.0497 25.91C41.0497 26.596 41.2877 27.156 41.7637 27.59C42.2397 28.024 42.8347 28.241 43.5487 28.241ZM59.9513 20.429C61.3653 20.429 62.4993 20.849 63.3533 21.689C64.2213 22.529 64.6553 23.796 64.6553 25.49V32H60.6653V26.141C60.6653 24.587 60.0423 23.81 58.7963 23.81C58.1103 23.81 57.5573 24.034 57.1373 24.482C56.7313 24.93 56.5283 25.602 56.5283 26.498V32H52.5383V20.618H56.3393V21.857C56.7873 21.395 57.3193 21.045 57.9353 20.807C58.5513 20.555 59.2233 20.429 59.9513 20.429ZM73.4607 17.3H77.6187V32H73.4607V17.3ZM87.8009 20.429C89.2149 20.429 90.3489 20.849 91.2029 21.689C92.0709 22.529 92.5049 23.796 92.5049 25.49V32H88.5149V26.141C88.5149 24.587 87.8919 23.81 86.6459 23.81C85.9599 23.81 85.4069 24.034 84.9869 24.482C84.5809 24.93 84.3779 25.602 84.3779 26.498V32H80.3879V20.618H84.1889V21.857C84.6369 21.395 85.1689 21.045 85.7849 20.807C86.4009 20.555 87.0729 20.429 87.8009 20.429Z" fill="#18191F"/>
<path d="M106 30L112 24L106 18" stroke="#18191F" stroke-width="3" stroke-linecap="round" stroke-linejoin="round"/>
<path d="M16 2H120V-2H16V2ZM134 16V32H138V16H134ZM120 46H16V50H120V46ZM2 32V16H-2V32H2ZM16 46C8.26801 46 2 39.732 2 32H-2C-2 41.9411 6.05887 50 16 50V46ZM134 32C134 39.732 127.732 46 120 46V50C129.941 50 138 41.9411 138 32H134ZM120 2C127.732 2 134 8.26801 134 16H138C138 6.05888 129.941 -2 120 -2V2ZM16 -2C6.05888 -2 -2 6.05887 -2 16H2C2 8.26801 8.26801 2 16 2V-2Z" fill="#18191F"/>
</g>
<defs>
<filter id="filter0_d_362_11789" x="0" y="0" width="136" height="52" filterUnits="userSpaceOnUse" color-interpolation-filters="sRGB">
<feFlood flood-opacity="0" result="BackgroundImageFix"/>
<feColorMatrix in="SourceAlpha" type="matrix" values="0 0 0 0 0 0 0 0 0 0 0 0 0 0 0 0 0 0 127 0" result="hardAlpha"/>
<feOffset dy="4"/>
<feColorMatrix type="matrix" values="0 0 0 0 0.0941176 0 0 0 0 0.0980392 0 0 0 0 0.121569 0 0 0 1 0"/>
<feBlend mode="normal" in2="BackgroundImageFix" result="effect1_dropShadow_362_11789"/>
<feBlend mode="normal" in="SourceGraphic" in2="effect1_dropShadow_362_11789" result="shape"/>
</filter>
</defs>
</svg>
