<svg width="20" height="15" viewBox="0 0 20 15" fill="none" xmlns="http://www.w3.org/2000/svg">
<rect x="1" y="1" width="18" height="13" rx="2" stroke="#EA3222" stroke-width="2"/>
<path d="M7.57134 11C8.00267 11 8.24979 10.6818 8.24979 10.1313V5.08081C8.24979 4.39394 7.93079 4 7.37365 4C6.91087 4 6.64578 4.23232 6.3762 4.88384L5.1541 7.9697H5.10468L3.88257 4.88889C3.61299 4.23737 3.34341 4 2.88962 4C2.34147 4 2 4.40909 2 5.08081V10.1313C2 10.697 2.22465 11 2.65149 11C3.08282 11 3.32993 10.6818 3.32993 10.1313V6.66162H3.40182L4.43971 9.26768C4.64639 9.76768 4.82611 9.94444 5.13163 9.94444C5.43267 9.94444 5.6034 9.77778 5.81457 9.26768L6.85246 6.66162H6.92435V10.1313C6.92435 10.697 7.149 11 7.57134 11Z" fill="#EA3222"/>
<path d="M13.2866 10.2525C13.2866 9.84343 13.026 9.55556 12.6531 9.55556H10.7436V4.90404C10.7436 4.33333 10.474 4.00505 9.99775 4.00505C9.52149 4.00505 9.25641 4.32828 9.25641 4.90404V9.99495C9.25641 10.6162 9.55744 10.9495 10.1191 10.9495H12.6531C13.026 10.9495 13.2866 10.6616 13.2866 10.2525Z" fill="#EA3222"/>
<path d="M13.7721 9.99495C13.7721 10.6162 14.0731 10.9495 14.6347 10.9495H17.3934C17.7574 10.9495 18 10.6919 18 10.2879C18 9.88889 17.7574 9.62626 17.3979 9.62626H15.2413V8.09091H17.3081C17.6271 8.09091 17.8427 7.85354 17.8427 7.48485C17.8427 7.12121 17.6271 6.86869 17.3081 6.86869H15.2413V5.37879H17.4159C17.7574 5.37879 18 5.11111 18 4.72222C18 4.32828 17.7574 4.05556 17.4159 4.05556H14.6347C14.0731 4.05556 13.7721 4.39394 13.7721 5.0101V9.99495Z" fill="#EA3222"/>
</svg>
