<svg width="20" height="15" viewBox="0 0 20 15" fill="none" xmlns="http://www.w3.org/2000/svg">
<rect x="1" y="1" width="18" height="13" rx="2" stroke="#EA3222" stroke-width="2"/>
<path d="M5 7.82535C5 9.84648 5.93818 11 7.63668 11C8.37033 11 8.98392 10.7782 9.41966 10.4035C9.8065 10.0831 10.0466 9.6493 10.0466 9.25986C10.0466 8.87042 9.80205 8.60423 9.4419 8.60423C9.21513 8.60423 9.05506 8.69789 8.81941 8.96901C8.50372 9.41268 8.1569 9.61972 7.72561 9.61972C6.91637 9.61972 6.47174 8.96408 6.47174 7.75141V7.16972C6.47174 6.03099 6.92527 5.37535 7.72561 5.37535C8.15246 5.37535 8.4637 5.58239 8.79718 6.03592C9.02839 6.29718 9.20179 6.39577 9.43745 6.39577C9.79316 6.39577 10.0377 6.13451 10.0377 5.74014C10.0377 5.43451 9.85985 5.05 9.56639 4.73451C9.13065 4.2662 8.42813 4 7.63668 4C5.96486 4 5 5.15845 5 7.09577V7.82535Z" fill="#EA3222"/>
<path d="M10.816 9.92042C10.816 10.5268 11.1139 10.8521 11.6697 10.8521H14.3997C14.7599 10.8521 15 10.6007 15 10.2063C15 9.8169 14.7599 9.56056 14.4042 9.56056H12.2699V8.06197H14.3153C14.631 8.06197 14.8444 7.83028 14.8444 7.47042C14.8444 7.11549 14.631 6.86901 14.3153 6.86901H12.2699V5.41479H14.422C14.7599 5.41479 15 5.15352 15 4.77394C15 4.38944 14.7599 4.12324 14.422 4.12324H11.6697C11.1139 4.12324 10.816 4.45352 10.816 5.05493V9.92042Z" fill="#EA3222"/>
</svg>
