<svg width="20" height="15" viewBox="0 0 20 15" fill="none" xmlns="http://www.w3.org/2000/svg">
<rect x="1" y="1" width="18" height="13" rx="2" stroke="#EA3222" stroke-width="2"/>
<path d="M6.50863 7.28873V5.33382H7.48856C8.09019 5.33382 8.45026 5.68509 8.45026 6.30618C8.45026 6.93745 8.08563 7.28873 7.48856 7.28873H6.50863ZM6.50863 10.0938V8.48H7.40196L8.22237 10.2669C8.46849 10.8065 8.67815 10.9898 9.07468 10.9898C9.51222 10.9898 9.82215 10.664 9.82215 10.2007C9.82215 10.0225 9.78113 9.82909 9.69909 9.67127L8.8878 8.06764C9.56236 7.71636 9.94522 7.02909 9.94522 6.15345C9.94522 4.81964 9.08835 4 7.69366 4H6.04829C5.33272 4 5 4.392 5 5.21673V10.0938C5 10.6691 5.27803 11 5.76571 11C6.24428 11 6.50863 10.6742 6.50863 10.0938Z" fill="#EA3222"/>
<path d="M10.7111 9.98691C10.7111 10.6131 11.0165 10.9491 11.5862 10.9491H14.3847C14.7539 10.9491 15 10.6895 15 10.2822C15 9.88 14.7539 9.61527 14.3893 9.61527H12.2015V8.06764H14.2981C14.6217 8.06764 14.8405 7.82836 14.8405 7.45673C14.8405 7.09018 14.6217 6.83564 14.2981 6.83564H12.2015V5.33382H14.4075C14.7539 5.33382 15 5.064 15 4.672C15 4.27491 14.7539 4 14.4075 4H11.5862C11.0165 4 10.7111 4.34109 10.7111 4.96218V9.98691Z" fill="#EA3222"/>
</svg>
