<svg width="20" height="15" viewBox="0 0 20 15" fill="none" xmlns="http://www.w3.org/2000/svg">
<rect x="1" y="1" width="18" height="13" rx="2" stroke="#EA3222" stroke-width="2"/>
<path d="M4.83363 11C5.35763 11 5.67813 10.6664 5.67813 10.1206V5.42022H7.00591C7.39255 5.42022 7.67744 5.12708 7.67744 4.73791C7.67744 4.34368 7.39255 4.05054 7.00591 4.05054H2.67661C2.28998 4.05054 2 4.34368 2 4.73791C2 5.12708 2.28998 5.42022 2.67661 5.42022H3.99423V10.1206C3.99423 10.6664 4.30964 11 4.83363 11Z" fill="#EA3222"/>
<path d="M12.6632 10.252C12.6632 9.8426 12.3681 9.55451 11.9459 9.55451H9.78379V4.89964C9.78379 4.32852 9.47855 4 8.9393 4C8.40004 4 8.09989 4.32347 8.09989 4.89964V9.99422C8.09989 10.6159 8.44074 10.9495 9.07665 10.9495H11.9459C12.3681 10.9495 12.6632 10.6614 12.6632 10.252Z" fill="#EA3222"/>
<path d="M13.2128 9.99422C13.2128 10.6159 13.5537 10.9495 14.1896 10.9495H17.3132C17.7253 10.9495 18 10.6917 18 10.2874C18 9.88809 17.7253 9.62527 17.3183 9.62527H14.8764V8.08881H17.2166C17.5778 8.08881 17.8219 7.85126 17.8219 7.48231C17.8219 7.11841 17.5778 6.8657 17.2166 6.8657H14.8764V5.37473H17.3386C17.7253 5.37473 18 5.10686 18 4.71769C18 4.32347 17.7253 4.05054 17.3386 4.05054H14.1896C13.5537 4.05054 13.2128 4.38917 13.2128 5.00578V9.99422Z" fill="#EA3222"/>
</svg>
