<svg width="20" height="15" viewBox="0 0 20 15" fill="none" xmlns="http://www.w3.org/2000/svg">
<rect x="1" y="1" width="18" height="13" rx="2" stroke="#EA3222" stroke-width="2"/>
<path d="M3.56256 10.1427C3.76064 10.7781 4.11827 10.9849 4.66296 10.9849C5.20216 10.9849 5.57629 10.6924 5.73585 10.1427L6.77022 6.54683H6.84175L7.86512 10.0973C8.04118 10.7226 8.40982 10.9849 8.98752 10.9849C9.53772 10.9849 9.86784 10.7226 10.0439 10.1427L11.5129 5.25576C11.5514 5.13473 11.579 4.91787 11.579 4.77666C11.579 4.32277 11.2158 4 10.6986 4C10.209 4 9.90085 4.29755 9.7633 4.91282L8.86648 8.7255H8.77295L7.76608 4.88761C7.60102 4.27233 7.31492 4 6.80324 4C6.29155 4 6.01645 4.26225 5.85139 4.88761L4.83903 8.7255H4.75099L3.81566 4.91282C3.6616 4.28746 3.3755 4 2.89132 4C2.36313 4 2 4.32277 2 4.79179C2 4.92795 2.03301 5.14986 2.09353 5.35663L3.56256 10.1427Z" fill="#EA3222"/>
<path d="M12.1624 11C12.6466 11 12.9052 10.7731 13.0867 10.188L13.3783 9.36599H15.9037L16.1898 10.188C16.3714 10.7579 16.652 11 17.1362 11C17.6589 11 18 10.7176 18 10.2788C18 10.1023 17.9505 9.90058 17.8514 9.61816L16.1953 5.1549C15.8927 4.33285 15.4746 4.01009 14.6823 4.01009C13.89 4.01009 13.4609 4.3379 13.1638 5.1549L11.5022 9.61816C11.3756 9.95605 11.3261 10.1477 11.3261 10.3141C11.3261 10.7176 11.6672 11 12.1624 11ZM13.7525 8.16066L14.6053 5.55331H14.6933L15.5351 8.16066H13.7525Z" fill="#EA3222"/>
</svg>
