<svg width="18" height="18" viewBox="0 0 18 18" fill="none" xmlns="http://www.w3.org/2000/svg">
<path d="M14.8333 1.5H3.16667C2.72464 1.5 2.30072 1.67559 1.98816 1.98816C1.67559 2.30072 1.5 2.72464 1.5 3.16667V14.8333C1.5 15.2754 1.67559 15.6993 1.98816 16.0118C2.30072 16.3244 2.72464 16.5 3.16667 16.5H14.8333C15.2754 16.5 15.6993 16.3244 16.0118 16.0118C16.3244 15.6993 16.5 15.2754 16.5 14.8333V3.16667C16.5 2.72464 16.3244 2.30072 16.0118 1.98816C15.6993 1.67559 15.2754 1.5 14.8333 1.5ZM14.8333 14.8333H3.16667V3.16667H14.8333V14.8333ZM6.5 13.1667H4.83333V9H6.5V13.1667ZM9.83333 13.1667H8.16667V4.83333H9.83333V13.1667ZM13.1667 13.1667H11.5V7.33333H13.1667V13.1667Z" fill="currentColor"/>
</svg>
