<svg width="20" height="15" viewBox="0 0 20 15" fill="none" xmlns="http://www.w3.org/2000/svg">
<rect x="1" y="1" width="18" height="13" rx="2" stroke="#EA3222" stroke-width="2"/>
<path d="M6.66557 7.28873V5.33382H7.74743C8.41165 5.33382 8.80917 5.68509 8.80917 6.30618C8.80917 6.93745 8.40662 7.28873 7.74743 7.28873H6.66557ZM6.66557 10.0938V8.48H7.65183L8.55757 10.2669C8.8293 10.8065 9.06077 10.9898 9.49855 10.9898C9.98161 10.9898 10.3238 10.664 10.3238 10.2007C10.3238 10.0225 10.2785 9.82909 10.1879 9.67127L9.29224 8.06764C10.037 7.71636 10.4596 7.02909 10.4596 6.15345C10.4596 4.81964 9.51364 4 7.97387 4H6.15734C5.36733 4 5 4.392 5 5.21673V10.0938C5 10.6691 5.30695 11 5.84536 11C6.37372 11 6.66557 10.6742 6.66557 10.0938Z" fill="#EA3222"/>
<path d="M12.1556 11C12.6789 11 12.9708 10.6742 12.9708 10.0938V8.33236H15.0842C15.4767 8.33236 15.7434 8.06764 15.7434 7.67564C15.7434 7.28364 15.4817 7.01891 15.0842 7.01891H12.9708V5.34909H15.3408C15.7232 5.34909 16 5.07418 16 4.68218C16 4.28509 15.7232 4 15.3408 4H12.2663C11.6423 4 11.3052 4.34109 11.3052 4.96218V10.0938C11.3052 10.664 11.6172 11 12.1556 11Z" fill="#EA3222"/>
</svg>
