<svg width="20" height="15" viewBox="0 0 20 15" fill="none" xmlns="http://www.w3.org/2000/svg">
<rect x="1" y="1" width="18" height="13" rx="2" stroke="#EA3222" stroke-width="2"/>
<path d="M3.51224 7.10563C3.51224 5.99155 3.97368 5.33099 4.75493 5.33099C5.52705 5.33099 5.99306 5.99155 5.99306 7.10563V7.91901C5.99306 9.01831 5.53162 9.66901 4.75493 9.66901C3.97368 9.66901 3.51224 9.01831 3.51224 7.91901V7.10563ZM2 7.91901C2 9.83662 3.01425 11 4.75493 11C6.48648 11 7.5053 9.84155 7.5053 7.91901V7.11549C7.5053 5.17817 6.48648 4 4.75493 4C3.02339 4 2 5.17324 2 7.11549V7.91901Z" fill="#EA3222"/>
<path d="M10.1279 10.9014C10.5985 10.9014 10.8863 10.5761 10.8863 10.0437V5.45915H12.0788C12.426 5.45915 12.6818 5.17324 12.6818 4.79366C12.6818 4.40915 12.426 4.12324 12.0788 4.12324H8.19079C7.84357 4.12324 7.58315 4.40915 7.58315 4.79366C7.58315 5.17324 7.84357 5.45915 8.19079 5.45915H9.37409V10.0437C9.37409 10.5761 9.65735 10.9014 10.1279 10.9014Z" fill="#EA3222"/>
<path d="M14.5552 7.30775V5.41479H15.5375C16.1405 5.41479 16.5015 5.75493 16.5015 6.35634C16.5015 6.96761 16.136 7.30775 15.5375 7.30775H14.5552ZM14.5552 10.0239V8.46127H15.4507L16.273 10.1915C16.5197 10.7141 16.7299 10.8915 17.1274 10.8915C17.566 10.8915 17.8766 10.5761 17.8766 10.1275C17.8766 9.95493 17.8355 9.76761 17.7533 9.61479L16.9401 8.06197C17.6162 7.72183 18 7.05634 18 6.20845C18 4.9169 17.1411 4.12324 15.7431 4.12324H14.0938C13.3765 4.12324 13.0429 4.50282 13.0429 5.30141V10.0239C13.0429 10.581 13.3216 10.9014 13.8105 10.9014C14.2902 10.9014 14.5552 10.5859 14.5552 10.0239Z" fill="#EA3222"/>
</svg>
