<svg width="20" height="15" viewBox="0 0 20 15" fill="none" xmlns="http://www.w3.org/2000/svg">
<rect x="1" y="1" width="18" height="13" rx="2" stroke="#EA3222" stroke-width="2"/>
<path d="M4 9.4669C4 9.74296 4.17462 10.0289 4.49112 10.3C4.99862 10.7338 5.90992 11 6.93583 11C8.8021 11 9.99716 10.1472 9.99716 8.82113C9.99716 7.8007 9.32596 7.18451 7.9399 6.9331L6.90308 6.73099C6.21006 6.60775 5.89355 6.34648 5.89355 5.97676C5.89355 5.55282 6.30828 5.28169 6.96857 5.28169C7.53063 5.28169 7.97264 5.47887 8.35463 5.85845C8.58382 6.05563 8.81847 6.1493 9.05311 6.1493C9.4733 6.1493 9.75706 5.90282 9.75706 5.54296C9.75706 5.24225 9.58789 4.94648 9.26593 4.68028C8.7639 4.25141 7.9017 4 6.94674 4C5.20052 4 4.08731 4.81831 4.08731 6.10986C4.08731 7.14014 4.7476 7.7662 6.09 8.02254L7.11591 8.23451C7.9017 8.38732 8.22912 8.61901 8.22912 8.99366C8.22912 9.45704 7.80893 9.71338 7.02859 9.71338C6.47744 9.71338 5.93721 9.50634 5.48974 9.12676C5.18961 8.88521 4.96588 8.79648 4.70394 8.79648C4.3165 8.79648 4 9.07254 4 9.4669Z" fill="#EA3222"/>
<path d="M10.865 9.92042C10.865 10.5268 11.2306 10.8521 11.9128 10.8521H15.2633C15.7053 10.8521 16 10.6007 16 10.2063C16 9.8169 15.7053 9.56056 15.2688 9.56056H12.6494V8.06197H15.1596C15.5471 8.06197 15.809 7.83028 15.809 7.47042C15.809 7.11549 15.5471 6.86901 15.1596 6.86901H12.6494V5.41479H15.2906C15.7053 5.41479 16 5.15352 16 4.77394C16 4.38944 15.7053 4.12324 15.2906 4.12324H11.9128C11.2306 4.12324 10.865 4.45352 10.865 5.05493V9.92042Z" fill="#EA3222"/>
</svg>
