<svg width="18" height="18" viewBox="0 0 18 18" fill="none" xmlns="http://www.w3.org/2000/svg">
<rect y="1" width="18" height="16" rx="3" fill="currentColor"/>
<path d="M4.93443 13.9856C5.53916 13.9856 5.91803 13.5893 5.91803 12.9481V5.7147H8.03097C8.52641 5.7147 8.87614 5.37608 8.87614 4.90058C8.87614 4.41787 8.52641 4.07925 8.03097 4.07925H1.84517C1.35701 4.07925 1 4.42507 1 4.90058C1 5.36888 1.35701 5.7147 1.84517 5.7147H3.95082V12.9481C3.95082 13.5965 4.3224 13.9856 4.93443 13.9856Z" fill="white"/>
<path d="M9.40801 14C9.9326 14 10.224 13.7334 10.4281 13.0562L10.9818 11.3847H14.4718L15.0328 13.0562C15.2295 13.7262 15.5355 14 16.0674 14C16.6284 14 17 13.6686 17 13.1499C17 12.9481 16.949 12.7104 16.847 12.4006L14.3406 5.29683C14.0273 4.37464 13.5902 4 12.7668 4C11.9362 4 11.4918 4.38184 11.1785 5.29683L8.67213 12.4006C8.54827 12.768 8.49727 12.9914 8.49727 13.1859C8.49727 13.6758 8.86885 14 9.40801 14ZM11.4189 9.9366L12.6867 5.95965H12.7814L14.0419 9.9366H11.4189Z" fill="white"/>
</svg>
