<svg width="18" height="18" viewBox="0 0 18 18" fill="none" xmlns="http://www.w3.org/2000/svg">
<path d="M9 0.5C4.308 0.5 0.5 4.308 0.5 9C0.5 13.692 4.308 17.5 9 17.5C13.692 17.5 17.5 13.692 17.5 9C17.5 4.308 13.692 0.5 9 0.5ZM12.0685 5.889C12.978 5.889 13.709 6.62 13.709 7.5295C13.709 8.439 12.978 9.17 12.0685 9.17C11.159 9.17 10.428 8.439 10.428 7.5295C10.4195 6.62 11.159 5.889 12.0685 5.889ZM6.9685 4.546C8.0735 4.546 8.9745 5.447 8.9745 6.552C8.9745 7.657 8.0735 8.558 6.9685 8.558C5.8635 8.558 4.9625 7.657 4.9625 6.552C4.9625 5.4385 5.855 4.546 6.9685 4.546ZM6.9685 12.3065V15.494C4.9285 14.8565 3.3135 13.284 2.5995 11.278C3.492 10.326 5.719 9.8415 6.9685 9.8415C7.419 9.8415 7.9885 9.9095 8.5835 10.0285C7.1895 10.768 6.9685 11.7455 6.9685 12.3065ZM9 15.8C8.7705 15.8 8.5495 15.7915 8.3285 15.766V12.3065C8.3285 11.0995 10.8275 10.496 12.0685 10.496C12.978 10.496 14.5505 10.8275 15.3325 11.4735C14.338 13.998 11.8815 15.8 9 15.8Z" fill="currentColor"/>
</svg>
