<svg width="18" height="18" viewBox="0 0 18 18" fill="#EA3222" xmlns="http://www.w3.org/2000/svg">
<path d="M9.00082 0.848511C9.69842 0.848485 10.3689 1.1187 10.8715 1.60244C11.3742 2.08618 11.6699 2.74583 11.6966 3.44291L11.6984 3.54613H15.0998C15.2498 3.54661 15.3939 3.60456 15.5025 3.70804C15.6111 3.81153 15.6759 3.95269 15.6836 4.10249C15.6912 4.25229 15.6412 4.39935 15.5438 4.51341C15.4464 4.62747 15.309 4.69987 15.1598 4.71572L15.0998 4.719H14.5879L13.789 15.3077C13.7511 15.8091 13.5252 16.2777 13.1565 16.6196C12.7878 16.9615 12.3035 17.1515 11.8007 17.1515H6.20093C5.6981 17.1515 5.21384 16.9615 4.84514 16.6196C4.47644 16.2777 4.25053 15.8091 4.21267 15.3077L3.41324 4.719H2.90187C2.75669 4.71907 2.61664 4.66528 2.50883 4.56804C2.40102 4.47081 2.33311 4.33704 2.31824 4.19262L2.31543 4.13256C2.31543 3.82902 2.54625 3.57897 2.84182 3.54941L2.90187 3.54613H6.30321C6.30321 2.83067 6.58742 2.14453 7.09332 1.63862C7.59922 1.13272 8.28537 0.848511 9.00082 0.848511ZM13.4118 4.719H4.58987L5.38274 15.2195C5.39835 15.4259 5.49131 15.6187 5.64302 15.7595C5.79472 15.9002 5.99399 15.9785 6.20093 15.9786H11.8007C12.0077 15.9786 12.2071 15.9004 12.3589 15.7596C12.5107 15.6189 12.6038 15.426 12.6194 15.2195L13.4122 4.719H13.4118ZM10.5256 7.18204C10.8291 7.18204 11.0792 7.41287 11.1092 7.70843L11.112 7.76848V12.9291C11.1127 13.0799 11.0553 13.2252 10.9517 13.3348C10.8481 13.4444 10.7062 13.5098 10.5556 13.5175C10.405 13.5253 10.2572 13.4747 10.143 13.3763C10.0287 13.2779 9.95668 13.1393 9.94194 12.9892L9.93913 12.9291V7.76848C9.93913 7.44477 10.2019 7.18204 10.5256 7.18204ZM7.47609 7.18204C7.77963 7.18204 8.02968 7.41287 8.05971 7.70843L8.06252 7.76848V12.9291C8.06322 13.0799 8.00581 13.2252 7.9022 13.3348C7.79859 13.4444 7.65675 13.5098 7.50615 13.5175C7.35555 13.5253 7.20776 13.4747 7.09347 13.3763C6.97919 13.2779 6.9072 13.1393 6.89246 12.9892L6.88965 12.9291V7.76848C6.88965 7.44477 7.15237 7.18204 7.47609 7.18204ZM9.00082 2.02139C8.61137 2.02136 8.23666 2.17037 7.95357 2.43784C7.67049 2.70531 7.50048 3.07097 7.47843 3.4598L7.47609 3.54613H10.5256C10.5256 3.14174 10.3649 2.75392 10.079 2.46797C9.79303 2.18203 9.40521 2.02139 9.00082 2.02139Z" fill="#EA3222"/>
</svg>
