<svg width="18" height="18" viewBox="0 0 18 18" fill="none" xmlns="http://www.w3.org/2000/svg">
<path d="M9 1.125C4.66875 1.125 1.125 4.66875 1.125 9C1.125 13.3313 4.66875 16.875 9 16.875C13.3313 16.875 16.875 13.3313 16.875 9C16.875 4.66875 13.3313 1.125 9 1.125ZM8.38125 4.5H9.61875V10.6875H8.38125V4.5ZM9 14.0625C8.55 14.0625 8.15625 13.6687 8.15625 13.2188C8.15625 12.7688 8.55 12.375 9 12.375C9.45 12.375 9.84375 12.7688 9.84375 13.2188C9.84375 13.6687 9.45 14.0625 9 14.0625Z" fill="currentColor"/>
</svg>
